<?xml version="1.0" encoding="utf-8"?><svg xmlns="http://www.w3.org/2000/svg" xmlns:xlink="http://www.w3.org/1999/xlink"><symbol viewBox="0 0 447 247" id="card-hover"><path d="M446.492 123.49c.048 67.923-99.681 122.986-222.75 122.986C100.672 246.476.865 191.413.817 123.49.769 55.567 100.497.504 223.567.504S446.445 55.567 446.493 123.49z"/></symbol><symbol viewBox="0 0 15 19" id="contacts-address"><path fill-rule="evenodd" clip-rule="evenodd" d="M12.84 13.295c2.391-2.38 1.824-6.804-1.266-9.88C8.484.339 4.04-.225 1.65 2.155c-2.39 2.38-1.823 6.802 1.267 9.878 1.502 1.496 5.075 6.52 5.075 6.52s3.62-4.035 4.849-5.258zM5.45 5.937c.759-.754 2.177-.566 3.168.42.99.988 1.18 2.399.422 3.154-.758.755-2.176.566-3.167-.421-.991-.986-1.18-2.399-.422-3.153z"/></symbol><symbol viewBox="0 0 16 13" id="contacts-email"><path d="M14.244 12.83c.335 0 .625-.113.872-.335l-4.22-4.297-.292.214c-.316.237-.572.422-.769.554a4.706 4.706 0 0 1-.785.407 2.358 2.358 0 0 1-.914.207h-.017c-.282 0-.587-.069-.914-.207a4.69 4.69 0 0 1-.785-.407 19.588 19.588 0 0 1-.77-.554 36.54 36.54 0 0 0-.29-.215l-4.22 4.298c.246.222.536.335.87.335h12.234zM1.52 5.493a4.43 4.43 0 0 1-.84-.736v6.537L4.4 7.507c-.744-.53-1.703-1.2-2.88-2.014zm13.223 0c-1.132.78-2.094 1.452-2.886 2.015l3.717 3.786V4.757a4.65 4.65 0 0 1-.83.736z"/><path d="M14.245.915H2.012c-.427 0-.755.147-.985.44-.23.293-.345.66-.345 1.1 0 .355.152.74.457 1.155.305.415.629.74.972.978.189.135.757.537 1.704 1.205a550.241 550.241 0 0 1 2.302 1.635l.23.168c.18.133.329.24.448.322.119.082.263.173.432.275a2.5 2.5 0 0 0 .478.228c.15.05.288.076.416.076h.016a1.3 1.3 0 0 0 .416-.076c.15-.05.308-.127.478-.228.168-.102.312-.194.432-.275.119-.082.268-.19.449-.322a55.871 55.871 0 0 1 .353-.258l.84-.595 3.05-2.155a3.989 3.989 0 0 0 1.013-1.041c.271-.406.407-.832.407-1.278a1.31 1.31 0 0 0-.394-.956 1.274 1.274 0 0 0-.936-.398z"/></symbol><symbol viewBox="0 0 15 15" id="contacts-tel"><path d="M14.664 11.864l-2.317-2.322c-.461-.46-1.225-.446-1.703.032l-1.167 1.17a30.47 30.47 0 0 1-.23-.129c-.737-.409-1.746-.97-2.807-2.034C5.375 7.514 4.815 6.5 4.405 5.762c-.043-.078-.084-.154-.125-.226l.783-.783.385-.387c.478-.48.492-1.245.031-1.707L3.163.337C2.703-.124 1.938-.11 1.46.369l-.653.658.018.018c-.22.28-.402.603-.538.951a3.95 3.95 0 0 0-.24.965C-.259 5.502.9 7.825 4.045 10.977c4.347 4.357 7.85 4.028 8.002 4.011.329-.039.644-.118.965-.242.344-.135.666-.319.945-.537l.014.012.662-.649c.477-.48.49-1.245.03-1.708z"/></symbol><symbol viewBox="0 0 139.4 44.7" id="dorohovdesign"><path d="M52.2 19.5V8.1H57c3.6 0 6.1 2.1 6.1 5.7 0 3.5-2.6 5.7-6.1 5.7h-4.8zm7.9-5.7c0-1.8-1.1-3.1-3.1-3.1h-1.9v6.2H57c2 0 3.1-1.4 3.1-3.1m4.1 0c0-3.4 2.6-5.9 6.1-5.9 3.5 0 6.1 2.4 6.1 5.9 0 3.5-2.6 5.9-6.1 5.9-3.5 0-6.1-2.4-6.1-5.9m9.2 0c0-1.9-1.2-3.3-3.1-3.3-1.9 0-3.1 1.4-3.1 3.3 0 1.8 1.2 3.3 3.1 3.3 1.9 0 3.1-1.4 3.1-3.3m11 5.7l-1.9-3.8H81v3.8h-2.9V8.1h5.7c2.5 0 3.9 1.7 3.9 3.8 0 2-1.2 3-2.3 3.4l2.3 4.2h-3.3zm.3-7.6c0-.8-.6-1.2-1.4-1.2H81v2.4h2.3c.8 0 1.4-.4 1.4-1.2m4.2 1.9c0-3.4 2.6-5.9 6.1-5.9 3.5 0 6.1 2.4 6.1 5.9 0 3.5-2.6 5.9-6.1 5.9-3.5 0-6.1-2.4-6.1-5.9m9.1 0c0-1.9-1.2-3.3-3.1-3.3-1.9 0-3.1 1.4-3.1 3.3 0 1.8 1.2 3.3 3.1 3.3 1.9 0 3.1-1.4 3.1-3.3m12.4 5.7v-4.6h-4.7v4.6h-3V8.1h3v4.3h4.7V8.1h2.9v11.4zm4.6-5.7c0-3.4 2.6-5.9 6.1-5.9 3.5 0 6.1 2.4 6.1 5.9 0 3.5-2.6 5.9-6.1 5.9-3.5 0-6.1-2.4-6.1-5.9m9.2 0c0-1.9-1.2-3.3-3.1-3.3-1.9 0-3.1 1.4-3.1 3.3 0 1.8 1.2 3.3 3.1 3.3 1.9 0 3.1-1.4 3.1-3.3m7.3 5.7l-4.3-11.4h3.3l2.8 8.2 2.8-8.2h3.3l-4.2 11.4zm-79.3 17V25.1H57c3.6 0 6.1 2.1 6.1 5.7 0 3.5-2.6 5.7-6.1 5.7h-4.8zm7.9-5.7c0-1.8-1.1-3.1-3.1-3.1h-1.9v6.2H57c2 0 3.1-1.4 3.1-3.1m4.7 5.7V25.1h8.3v2.6h-5.3v1.8H73V32h-5.2v1.9h5.3v2.6zm9.6-1.6l1.5-2.2c.8.8 2.1 1.5 3.6 1.5 1 0 1.6-.4 1.6-.9 0-1.5-6.4-.3-6.4-4.7 0-1.9 1.6-3.6 4.5-3.6 1.8 0 3.4.5 4.6 1.6l-1.6 2.1c-1-.8-2.2-1.2-3.3-1.2-.8 0-1.2.3-1.2.8 0 1.4 6.4.4 6.4 4.6 0 2.3-1.7 3.8-4.7 3.8-2.2 0-3.8-.7-5-1.8m11.5-9.8h2.9v11.3h-2.9zm4.7 5.7c0-3.6 2.8-5.9 6.1-5.9 2.5 0 4.1 1.3 4.8 2.8L99.1 29c-.4-.7-1.3-1.4-2.4-1.4-1.9 0-3.2 1.4-3.2 3.3s1.3 3.3 3.2 3.3c.8 0 1.7-.3 2.1-.7v-.9h-2.6V30h5.5v4.5c-1.2 1.3-2.9 2.2-5 2.2-3.4 0-6.1-2.3-6.1-5.9m20.9 5.7l-4.8-6.6v6.6h-2.9V25.1h3l4.6 6.3v-6.3h2.9v11.4zM17.7 0H0v44.7h17.8c15 0 24.6-8.8 24.6-22.4C42.4 8.7 32.7 0 17.7 0m-.4 35.7h-8V9.5h8c9.3 0 15.7 3.7 15.7 12.7.1 7.5-5.8 13.5-15.7 13.5"/><path d="M19.1 17H17v10.6h2c4 0 6.4-2.4 6.4-5.4 0-3.7-2.6-5.2-6.3-5.2"/></symbol><symbol viewBox="0 0 27 23" id="form-switch"><path d="M18.4 2.836c6.406 3.776 9.406 10.715 6.7 15.5-2.707 4.785-10.094 5.603-16.5 1.828-6.407-3.776-9.406-10.715-6.7-15.5C4.607-.121 11.994-.94 18.4 2.836z" fill="#FDBCBC"/><path fill-rule="evenodd" clip-rule="evenodd" d="M18.973 8.95a1.5 1.5 0 0 1-.009 2.12l-5.38 5.336a1.5 1.5 0 0 1-2.112 0l-3.114-3.089a1.5 1.5 0 1 1 2.112-2.13l2.058 2.042 4.323-4.288a1.5 1.5 0 0 1 2.122.009z"/></symbol><symbol viewBox="0 0 114 114" id="icon-adv-1"><path d="M87.354 50.336a6.552 6.552 0 0 0-6.545-6.545H68.781c2.922-3.285 4.832-7.025 5.201-10.38.225-2.05-.408-4.085-1.738-5.583-1.215-1.369-2.877-2.132-4.68-2.148H67.5a6.51 6.51 0 0 0-4.615 1.895 6.464 6.464 0 0 0-1.927 4.594c-.063.381-.733 1.695-2.373 3.254-1.343 1.277-3.662 3.033-7.086 4.145-1.343.436-2.57 1.238-3.647 2.385a23.584 23.584 0 0 1-2.46 2.267 3.664 3.664 0 0 0-1.72-.428H32.247a3.693 3.693 0 0 0-3.688 3.689v30.463a3.693 3.693 0 0 0 3.688 3.689h11.424a3.69 3.69 0 0 0 3.226-1.904H76.05a5.6 5.6 0 0 0 5.593-5.593 5.558 5.558 0 0 0-.777-2.842 5.595 5.595 0 0 0 2.68-4.774 5.558 5.558 0 0 0-.776-2.842 5.595 5.595 0 0 0 2.68-4.774 5.562 5.562 0 0 0-.972-3.15 6.544 6.544 0 0 0 2.877-5.418zm-6.545 2.975h-.952a1.785 1.785 0 0 0 0 3.57c1.115 0 2.023.907 2.023 2.023a2.025 2.025 0 0 1-2.023 2.023h-1.904a1.785 1.785 0 0 0 0 3.57c1.115 0 2.023.908 2.023 2.023a2.025 2.025 0 0 1-2.023 2.023h-1.904a1.785 1.785 0 0 0 0 3.57c1.116 0 2.023.908 2.023 2.023a2.025 2.025 0 0 1-2.023 2.023H47.361V58.905a1.785 1.785 0 0 0-3.57 0v19.04a.119.119 0 0 1-.119.118H32.248a.119.119 0 0 1-.118-.119V47.48c0-.066.053-.119.118-.119h11.424a.12.12 0 0 1 .12.119v3.808a1.785 1.785 0 0 0 3.57 0V47.48c0-.087-.008-.171-.014-.257a27.097 27.097 0 0 0 3.107-2.826c.66-.704 1.383-1.186 2.147-1.434 4.201-1.364 7.029-3.56 8.66-5.163 2.046-2.008 3.267-4.101 3.267-5.6 0-.792.309-1.534.87-2.09a2.993 2.993 0 0 1 2.132-.86c1 .009 1.663.52 2.043.949.651.733.972 1.788.859 2.821-.39 3.547-3.227 7.931-7.226 11.169a1.785 1.785 0 0 0 1.123 3.172h16.479a2.978 2.978 0 0 1 2.975 2.975 2.978 2.978 0 0 1-2.975 2.975z"/><path d="M37.96 70.427c-.985 0-1.794.81-1.794 1.795 0 .986.809 1.794 1.795 1.794.985 0 1.794-.808 1.794-1.794s-.809-1.794-1.794-1.794z"/><path d="M110.818 57l3.067-8.114a1.785 1.785 0 0 0-.277-1.748l-5.424-6.77.409-8.664c.03-.63-.276-1.23-.803-1.576l-7.25-4.762-2.289-8.367a1.785 1.785 0 0 0-1.25-1.25l-8.367-2.29-4.763-7.25a1.787 1.787 0 0 0-1.575-.802l-8.665.409L66.86.392a1.785 1.785 0 0 0-1.747-.277L57 3.182 48.886.115a1.784 1.784 0 0 0-1.747.277l-6.77 5.424-8.665-.409a1.782 1.782 0 0 0-1.576.803l-4.762 7.25L17 15.75A1.785 1.785 0 0 0 15.75 17l-2.289 8.367-7.25 4.762a1.785 1.785 0 0 0-.803 1.576l.41 8.665-5.425 6.77a1.785 1.785 0 0 0-.276 1.747L3.182 57 .115 65.114a1.784 1.784 0 0 0 .277 1.747l5.424 6.77-.409 8.665c-.03.63.276 1.23.803 1.575l7.25 4.763L15.748 97A1.785 1.785 0 0 0 17 98.25l8.367 2.289 4.762 7.25a1.79 1.79 0 0 0 1.576.803l8.665-.409 6.77 5.424c.492.395 1.156.5 1.747.277L57 110.818l8.114 3.067a1.791 1.791 0 0 0 1.747-.277l6.77-5.424 8.665.409a1.788 1.788 0 0 0 1.575-.803l4.763-7.25L97 98.251a1.785 1.785 0 0 0 1.25-1.25l2.289-8.367 7.25-4.763c.528-.346.833-.945.803-1.575l-.409-8.665 5.424-6.77c.394-.492.5-1.157.277-1.747L110.818 57zm-3.578.63l2.945 7.794-5.209 6.501c-.272.34-.41.766-.39 1.2l.393 8.322-6.963 4.573a1.784 1.784 0 0 0-.742 1.021l-2.197 8.036-8.036 2.197c-.42.115-.782.379-1.02.742l-4.575 6.963-8.32-.393a1.786 1.786 0 0 0-1.2.39l-6.502 5.209-7.793-2.945a1.781 1.781 0 0 0-1.262 0l-7.793 2.945-6.501-5.209a1.787 1.787 0 0 0-1.2-.39l-8.322.393-4.573-6.963a1.785 1.785 0 0 0-1.021-.742l-8.036-2.197-2.197-8.036a1.786 1.786 0 0 0-.742-1.02L9.02 81.445l.393-8.32a1.784 1.784 0 0 0-.39-1.201l-5.21-6.501L6.76 57.63a1.785 1.785 0 0 0 0-1.262l-2.945-7.793 5.209-6.501c.272-.34.41-.766.39-1.2l-.393-8.322 6.963-4.573a1.79 1.79 0 0 0 .742-1.021l2.197-8.036 8.036-2.198c.42-.114.782-.378 1.02-.742l4.575-6.962 8.32.393a1.79 1.79 0 0 0 1.2-.39l6.502-5.21L56.37 6.76c.407.153.855.153 1.262 0l7.793-2.945 6.501 5.209c.34.272.766.41 1.2.39l8.322-.393 4.573 6.962c.239.364.602.628 1.021.742l8.036 2.198 2.198 8.036c.114.419.378.782.741 1.02l6.963 4.574-.393 8.322c-.02.434.118.86.39 1.2l5.209 6.501-2.945 7.793a1.792 1.792 0 0 0 0 1.262z"/><path d="M90.54 26.178a46.63 46.63 0 0 0-2.8-2.799 1.785 1.785 0 1 0-2.414 2.63 43.416 43.416 0 0 1 2.584 2.584 1.78 1.78 0 0 0 1.315.577 1.785 1.785 0 0 0 1.315-2.992zm-9.139-7.67c-8.608-5.484-18.971-7.921-29.18-6.864-10.36 1.073-20.128 5.727-27.506 13.105A45.44 45.44 0 0 0 11.404 55.12c-.462 11.399 3.314 22.465 10.63 31.162a1.781 1.781 0 0 0 2.516.216c.754-.635.851-1.76.217-2.515-6.743-8.013-10.221-18.212-9.796-28.718a41.878 41.878 0 0 1 12.268-27.993 42.094 42.094 0 0 1 25.349-12.078c9.413-.975 18.964 1.271 26.895 6.324a1.785 1.785 0 1 0 1.918-3.01zM95.41 32.517a1.785 1.785 0 0 0-3.01 1.918c5.053 7.932 7.299 17.483 6.324 26.895a42.097 42.097 0 0 1-12.078 25.35 41.88 41.88 0 0 1-27.992 12.268c-10.505.427-20.706-3.053-28.72-9.795a1.785 1.785 0 1 0-2.297 2.731 45.402 45.402 0 0 0 29.294 10.669c.62 0 1.244-.013 1.867-.038a45.439 45.439 0 0 0 30.373-13.311c7.377-7.378 12.032-17.146 13.104-27.505 1.057-10.21-1.38-20.574-6.864-29.182z"/></symbol><symbol viewBox="0 0 114 114" id="icon-adv-2"><path d="M101.284 95.832l-1.873-.751C108.83 84.603 114 71.144 114 57a56.911 56.911 0 0 0-9.872-32.066 1.788 1.788 0 0 0-.285-.408 57.145 57.145 0 0 0-9.93-10.96 1.8 1.8 0 1 0-2.333 2.742 53.596 53.596 0 0 1 8.147 8.661c-3.81 1.49-8.384 2.75-13.49 3.747-1.409-4.2-3.141-8.114-5.177-11.647-2.745-4.761-5.902-8.596-9.343-11.416a53.088 53.088 0 0 1 15.138 7.066 1.8 1.8 0 0 0 2.015-2.983C79.443 3.366 68.422 0 57 0 41.775 0 27.46 5.929 16.695 16.695S0 41.775 0 57c0 14.163 5.177 27.623 14.612 38.104l-1.85.725c-.68.246-6.472 2.556-6.472 9.92v6.449A1.8 1.8 0 0 0 8.09 114h26.494c.087 0 .172-.008.255-.02.084.012.169.02.256.02h7.324a1.8 1.8 0 1 0 0-3.6h-5.524v-6.269c0-6.614 5.195-8.516 5.404-8.59l.083-.03 8.766-3.433c.019.02.037.042.057.061l4.658 4.538c.337.327.787.51 1.256.51h.028a1.798 1.798 0 0 0 1.268-.55l4.473-4.642 8.754 3.51c.032.013.052.021.085.032.221.078 5.417 1.98 5.417 8.594v6.269h-29.1a1.8 1.8 0 1 0 0 3.6h57.905a1.81 1.81 0 0 0 1.799-1.813v-6.438c.001-7.336-5.747-9.657-6.464-9.917zm-5.447-2.185l-1.774-.711v-1.024a9.412 9.412 0 0 0 4.184-5.19 5.094 5.094 0 0 0 4.687-5.07 5.084 5.084 0 0 0-1.875-3.942v-3.2c0-6.168-4.629-11.272-10.594-12.03a99.62 99.62 0 0 0 .138-3.68h19.764c-.433 13.03-5.551 25.336-14.53 34.847zm-6.498-4.052h-1.642a5.774 5.774 0 0 1-5.768-5.767v-4.763c2.345-.254 6.498-1.074 9.698-3.746.717 1.229 1.826 2.558 3.48 3.335v5.173a5.775 5.775 0 0 1-5.768 5.768zm1.124 3.53v.998l-2.005 2.081-1.885-1.835v-1.244c.37.044.744.07 1.125.07h1.641c.381 0 .755-.025 1.124-.07zM80.135 75.582h-.006c-.062 0-.123.003-.184.01-.019.001-.038.005-.057.008-.04.005-.081.01-.12.019-.028.005-.054.013-.08.02-.032.008-.063.014-.093.024l-.058.02v-1.172c0-4.704 3.827-8.53 8.531-8.53h.86c4.704 0 8.53 3.826 8.53 8.53v1.158a1.517 1.517 0 0 0-.102-.028l-.05-.014c-2.51-.57-3.33-3.92-3.336-3.945a1.8 1.8 0 0 0-3.214-.657c-3.26 4.505-10.526 4.557-10.62 4.557zm18.572 7.283V80.44a1.488 1.488 0 0 1 0 2.426zM101.839 28a53.3 53.3 0 0 1 8.527 27.2H90.602c-.146-8.101-1.279-15.916-3.297-23.033 5.534-1.099 10.468-2.504 14.534-4.167zM87.001 55.2H68.573a14.69 14.69 0 0 0-9.773-4.806v-15.48c8.833-.087 17.357-.822 24.951-2.098 1.987 6.883 3.103 14.483 3.25 22.384zM71.123 73.996a2.317 2.317 0 0 1-1.687 2.226V71.77a2.318 2.318 0 0 1 1.687 2.227zM58.8 3.7c7.163.765 13.902 6.08 19.14 15.167 1.839 3.188 3.417 6.711 4.719 10.49-7.258 1.189-15.402 1.873-23.86 1.957L58.8 3.7zm-1.142 50.245c6.132 0 11.12 4.989 11.12 11.12v2.2l-.037-.028a1.61 1.61 0 0 0-.08-.06l-.065-.042a1.599 1.599 0 0 0-.082-.05c-.025-.014-.052-.026-.078-.04-.025-.012-.05-.025-.076-.036a1.625 1.625 0 0 0-.097-.038l-.067-.025a1.522 1.522 0 0 0-.111-.03.413.413 0 0 0-.05-.015c-3.419-.778-4.502-5.236-4.511-5.275a1.8 1.8 0 0 0-3.214-.657c-4.216 5.827-13.527 5.887-13.65 5.887h-.007a1.59 1.59 0 0 0-.183.01l-.056.008c-.041.005-.083.01-.123.018l-.076.02c-.032.008-.065.015-.096.025-.029.009-.057.02-.086.031-.026.01-.053.018-.078.029-.033.014-.065.03-.096.046-.02.01-.041.018-.062.03-.032.017-.062.037-.093.056-.018.011-.037.021-.055.033a1.67 1.67 0 0 0-.084.063c-.018.013-.037.026-.054.04-.017.014-.032.03-.049.043v-2.243c0-6.132 4.988-11.12 11.12-11.12h1.076zM26.998 55.2c.148-7.903 1.264-15.505 3.252-22.388 7.605 1.278 16.138 2.014 24.95 2.103v15.497a14.695 14.695 0 0 0-9.543 4.8 1.822 1.822 0 0 0-.2-.012H27zm17.855 16.551v4.49a2.317 2.317 0 0 1-1.76-2.245c0-1.084.751-1.995 1.76-2.245zM55.2 3.7v27.614c-8.437-.085-16.588-.772-23.857-1.962 1.301-3.777 2.879-7.298 4.716-10.485C41.298 9.78 48.037 4.465 55.2 3.7zM42.263 5.67c-3.433 2.818-6.583 6.646-9.323 11.399-2.035 3.531-3.767 7.445-5.176 11.643-5.1-.995-9.665-2.253-13.468-3.737 6.893-9.17 16.668-16.057 27.967-19.306zM12.177 28.006c4.056 1.657 8.991 3.057 14.52 4.155-2.02 7.118-3.152 14.934-3.299 23.038H3.634a53.065 53.065 0 0 1 8.543-27.193zm11.599 65.118c.369.045.744.07 1.124.07h1.642c.38 0 .755-.025 1.124-.07v.998l-2.005 2.081-1.885-1.835v-1.243zm2.766-3.53H24.9a5.775 5.775 0 0 1-5.768-5.768v-4.76c2.345-.254 6.496-1.074 9.698-3.748.717 1.23 1.826 2.559 3.48 3.335v5.174a5.775 5.775 0 0 1-5.768 5.767zm4.632-17.913a1.8 1.8 0 0 0-3.214-.658c-3.262 4.509-10.534 4.558-10.622 4.558h-.006a1.86 1.86 0 0 0-.184.01l-.056.008c-.04.005-.082.01-.122.019-.025.005-.05.013-.076.02-.032.007-.064.014-.096.024l-.057.02V74.51c0-4.704 3.827-8.531 8.53-8.531h.862c4.703 0 8.53 3.827 8.53 8.53v1.16c-.035-.012-.071-.02-.106-.03-.016-.004-.032-.01-.048-.013-2.509-.57-3.33-3.92-3.335-3.945zM3.634 58.8h19.764c.022 1.24.07 2.478.138 3.706-5.87.844-10.395 5.905-10.395 12.004v3.185a5.081 5.081 0 0 0-1.895 3.957c0 2.69 2.1 4.895 4.747 5.073a9.41 9.41 0 0 0 4.183 5.187v1.013l-1.966.77C9.2 84.177 4.065 71.857 3.633 58.8zm11.898 21.6v2.505a1.49 1.49 0 0 1-.686-1.252c0-.526.274-.988.686-1.253zm17.762 23.731v6.269H9.89v-4.651c0-5.019 3.923-6.473 4.075-6.527l.084-.03 6.788-2.66 3.608 3.514c.336.328.787.511 1.256.511l.028-.001a1.795 1.795 0 0 0 1.268-.55l3.407-3.537 4.212 1.69c-.798 1.634-1.322 3.613-1.322 5.972zm17.367-15.728l-9.554 3.74c-1.216.42-2.9 1.385-4.394 2.978l-5.447-2.185v-1.024a9.412 9.412 0 0 0 4.184-5.19 5.094 5.094 0 0 0 4.688-5.07 5.083 5.083 0 0 0-1.876-3.942v-3.2c0-6.35-4.905-11.572-11.125-12.085a95.297 95.297 0 0 1-.139-3.625h16.268a14.626 14.626 0 0 0-1.404 6.265v4.2a5.91 5.91 0 0 0-2.37 4.731 5.921 5.921 0 0 0 5.825 5.913 11.314 11.314 0 0 0 5.343 6.657l.001 1.837zM35.91 82.865V80.44a1.488 1.488 0 0 1 0 2.427zm24.118 6.794v.116l-2.949 3.06-2.818-2.745v-2.265a11.25 11.25 0 0 0 1.857.156h2.054c.632 0 1.252-.055 1.856-.155v1.833zm-1.856-5.278h-2.054c-4.226 0-7.665-3.438-7.665-7.664v-6.355c2.873-.265 8.553-1.263 12.703-4.988.875 1.657 2.343 3.58 4.68 4.579v6.763c0 4.227-3.438 7.665-7.664 7.665zm19.164 10.752c-1.493-1.597-3.179-2.566-4.398-2.986l-9.31-3.734v-1.846a11.312 11.312 0 0 0 5.344-6.66 5.921 5.921 0 0 0 5.75-5.91 5.91 5.91 0 0 0-2.345-4.713v-4.22c0-2.239-.505-4.362-1.403-6.264H87a95.157 95.157 0 0 1-.14 3.64c-6.125.608-10.924 5.79-10.924 12.07v3.186a5.08 5.08 0 0 0-1.894 3.957c0 2.69 2.1 4.894 4.747 5.073a9.41 9.41 0 0 0 4.183 5.186v1.014l-5.637 2.207zM78.33 80.4v2.505a1.489 1.489 0 0 1 0-2.505zm25.82 30H80.744v-6.269c0-2.349-.518-4.322-1.312-5.953l4.203-1.646 3.607 3.514c.336.327.787.511 1.256.511l.028-.001a1.796 1.796 0 0 0 1.268-.55l3.408-3.537 6.774 2.717c.032.013.049.02.082.03.167.06 4.091 1.514 4.091 6.533v4.651z"/></symbol><symbol viewBox="0 0 114 114" id="icon-adv-3"><path d="M15.2 30.4h28.5a1.9 1.9 0 1 0 0-3.8H15.2a1.9 1.9 0 1 0 0 3.8zm0-5.7h17.1a1.9 1.9 0 1 0 0-3.8H15.2a1.9 1.9 0 1 0 0 3.8zm30.4 9.5a1.9 1.9 0 0 0-1.9-1.9H15.2a1.9 1.9 0 1 0 0 3.8h28.5a1.9 1.9 0 0 0 1.9-1.9z"/><path d="M114 7.6H58.9V1.9a1.9 1.9 0 1 0-3.8 0v5.7H0v79.8h52.413l-23.356 23.357a1.897 1.897 0 0 0 0 2.686c.37.371.857.557 1.343.557s.973-.186 1.343-.557L55.1 90.087V108.3a1.9 1.9 0 1 0 3.8 0V90.087l23.357 23.356c.37.371.857.557 1.343.557s.973-.186 1.343-.557a1.897 1.897 0 0 0 0-2.686L61.587 87.4H114V7.6zm-3.8 76H3.8V11.4h106.4v72.2z"/><path d="M77.9 38h8.713L63.84 60.773 48.083 45.017a1.898 1.898 0 0 0-2.686 0l-23.94 23.94A1.898 1.898 0 0 0 22.8 72.2c.486 0 .973-.186 1.343-.557L46.74 49.047l15.757 15.756a1.895 1.895 0 0 0 2.686 0L89.3 40.687V49.4a1.9 1.9 0 1 0 3.8 0V36.1c0-.247-.05-.494-.146-.726a1.893 1.893 0 0 0-1.028-1.028 1.883 1.883 0 0 0-.726-.146H77.9a1.9 1.9 0 1 0 0 3.8z"/></symbol><symbol viewBox="0 0 107 114" id="icon-adv-4"><path d="M53.5 0C23.953 0 0 24.222 0 54.102v21.254c0 1.067.856 1.932 1.91 1.932h5.83c.469 3.319 3.275 5.787 6.59 5.797h1.147c1.05 5.229 6.093 8.607 11.263 7.545 4.457-.915 7.657-4.88 7.653-9.477V54.102c.005-5.336-4.268-9.666-9.544-9.671-4.547-.005-8.467 3.232-9.372 7.739H14.33c-3.315.009-6.121 2.477-6.59 5.796H3.821v-3.864c-.003-13.66 5.51-26.73 15.265-36.179a10.582 10.582 0 0 0 12.292.23 38.763 38.763 0 0 1 22.122-6.56 38.76 38.76 0 0 1 22.122 6.57 10.665 10.665 0 0 0 12.307-.217c9.743 9.447 15.251 22.506 15.25 36.156v3.864h-3.92c-.468-3.319-3.274-5.787-6.59-5.797h-1.146c-1.05-5.228-6.093-8.606-11.263-7.545-4.457.915-7.657 4.88-7.653 9.478v27.05c-.005 5.336 4.268 9.666 9.544 9.671 4.547.005 8.468-3.232 9.372-7.738h1.147c3.315-.01 6.121-2.478 6.59-5.797h3.821c-1.014 16.274-14.349 28.956-30.474 28.983h-9.905c-.807-2.308-2.96-3.854-5.38-3.864h-7.643c-3.166 0-5.733 2.595-5.733 5.796 0 3.202 2.567 5.797 5.733 5.797h7.642c2.42-.01 4.574-1.557 5.381-3.864h9.905c18.986-.023 34.371-15.581 34.393-34.78V54.102C107 24.222 83.047 0 53.5 0zM19.107 54.102c0-3.202 2.567-5.797 5.732-5.797 3.166 0 5.732 2.595 5.732 5.797v27.05c0 3.202-2.566 5.797-5.732 5.797-3.165 0-5.732-2.595-5.732-5.796V54.102zm-7.643 4.83c0-1.6 1.284-2.898 2.866-2.898h.956V79.22h-.956c-1.582 0-2.866-1.297-2.866-2.898v-17.39zM7.643 61.83v11.594H3.82V61.83h3.822zm70.12-46.875A42.548 42.548 0 0 0 53.5 7.73a42.547 42.547 0 0 0-24.266 7.22 6.856 6.856 0 0 1-7.204.31 49.144 49.144 0 0 1 62.932 0l.004.005a6.856 6.856 0 0 1-7.204-.309zm10.13 66.198c0 3.201-2.567 5.796-5.732 5.796-3.166 0-5.732-2.595-5.732-5.796V54.102c0-3.202 2.566-5.797 5.732-5.797 3.165 0 5.732 2.595 5.732 5.797v27.05zm7.643-4.831c0 1.6-1.284 2.898-2.866 2.898h-.956V56.034h.956c1.582 0 2.866 1.298 2.866 2.898v17.39zM57.32 110.136h-7.64a1.922 1.922 0 0 1-1.911-1.933c0-1.067.855-1.932 1.91-1.932h7.643c1.056 0 1.911.865 1.911 1.932a1.922 1.922 0 0 1-1.91 1.933zm45.858-36.712h-3.822V61.83h3.822v11.594z"/></symbol><symbol viewBox="0 0 114 114" id="icon-adv-5"><path d="M19 102.6c-1.14 0-1.9.76-1.9 1.9s.76 1.9 1.9 1.9 1.9-.76 1.9-1.9-.76-1.9-1.9-1.9zm-7.6 0c-1.14 0-1.9.76-1.9 1.9s.76 1.9 1.9 1.9 1.9-.76 1.9-1.9-.76-1.9-1.9-1.9zm15.2 0c-1.14 0-1.9.76-1.9 1.9s.76 1.9 1.9 1.9 1.9-.76 1.9-1.9-.76-1.9-1.9-1.9zm7.6 0c-1.14 0-1.9.76-1.9 1.9s.76 1.9 1.9 1.9 1.9-.76 1.9-1.9-.76-1.9-1.9-1.9zm7.6 0c-1.14 0-1.9.76-1.9 1.9s.76 1.9 1.9 1.9 1.9-.76 1.9-1.9-.76-1.9-1.9-1.9zm7.6 0c-1.14 0-1.9.76-1.9 1.9s.76 1.9 1.9 1.9 1.9-.76 1.9-1.9-.76-1.9-1.9-1.9zm7.6 0c-1.14 0-1.9.76-1.9 1.9s.76 1.9 1.9 1.9 1.9-.76 1.9-1.9-.76-1.9-1.9-1.9zm7.6 0c-1.14 0-1.9.76-1.9 1.9s.76 1.9 1.9 1.9 1.9-.76 1.9-1.9-.76-1.9-1.9-1.9zm7.6 0c-1.14 0-1.9.76-1.9 1.9s.76 1.9 1.9 1.9 1.9-.76 1.9-1.9-.76-1.9-1.9-1.9zm7.6 0c-1.14 0-1.9.76-1.9 1.9s.76 1.9 1.9 1.9 1.9-.76 1.9-1.9-.76-1.9-1.9-1.9zm7.6 0c-1.14 0-1.9.76-1.9 1.9s.76 1.9 1.9 1.9 1.9-.76 1.9-1.9-.76-1.9-1.9-1.9zm7.6 0c-1.14 0-1.9.76-1.9 1.9s.76 1.9 1.9 1.9 1.9-.76 1.9-1.9-.76-1.9-1.9-1.9zm7.6 0c-1.14 0-1.9.76-1.9 1.9s.76 1.9 1.9 1.9 1.9-.76 1.9-1.9-.76-1.9-1.9-1.9z"/><path d="M104.5 95h-95C4.18 95 0 99.18 0 104.5s4.18 9.5 9.5 9.5h95c5.32 0 9.5-4.18 9.5-9.5s-4.18-9.5-9.5-9.5zm0 15.2h-95c-3.23 0-5.7-2.47-5.7-5.7s2.47-5.7 5.7-5.7h95c3.23 0 5.7 2.47 5.7 5.7s-2.47 5.7-5.7 5.7z"/><path d="M28.69 68.4H9.31c-3.04 0-5.51 2.47-5.51 5.51V98.8h30.4V73.91c0-3.04-2.47-5.51-5.51-5.51zM30.4 95H7.6V73.91c0-.95.76-1.71 1.71-1.71h19.38c.95 0 1.71.76 1.71 1.71V95zm36.29-26.6H47.31c-3.04 0-5.51 2.47-5.51 5.51V98.8h30.4V73.91c0-3.04-2.47-5.51-5.51-5.51zM68.4 95H45.6V73.91c0-.95.76-1.71 1.71-1.71h19.38c.95 0 1.71.76 1.71 1.71V95zm36.29-26.6H85.31c-3.04 0-5.51 2.47-5.51 5.51V98.8h30.4V73.91c0-3.04-2.47-5.51-5.51-5.51zM106.4 95H83.6V73.91c0-.95.76-1.71 1.71-1.71h19.38c.95 0 1.71.76 1.71 1.71V95zM39.9 11.4c-6.27 0-11.4 5.13-11.4 11.4 0 6.27 5.13 11.4 11.4 11.4 6.27 0 11.4-5.13 11.4-11.4 0-6.27-5.13-11.4-11.4-11.4zm0 19c-4.18 0-7.6-3.42-7.6-7.6s3.42-7.6 7.6-7.6 7.6 3.42 7.6 7.6-3.42 7.6-7.6 7.6zm41.8-19c-6.27 0-11.4 5.13-11.4 11.4 0 6.27 5.13 11.4 11.4 11.4 6.27 0 11.4-5.13 11.4-11.4 0-6.27-5.13-11.4-11.4-11.4zm0 19c-4.18 0-7.6-3.42-7.6-7.6s3.42-7.6 7.6-7.6 7.6 3.42 7.6 7.6-3.42 7.6-7.6 7.6zm-.19 11.59c-5.32 0-9.5 4.18-9.5 9.5 0 3.23.57 5.51 2.47 7.03.76.76 1.9.57 2.66-.19.95-.95.95-2.09.19-2.66-.95-.95-1.33-2.09-1.33-4.37 0-3.23 2.47-5.7 5.7-5.7s5.7 2.47 5.7 5.7c0 2.28-.38 3.42-1.33 4.37-.76.76-.95 1.9-.19 2.66.76.76 1.9.95 2.66.19 1.9-1.71 2.47-3.99 2.47-7.03 0-5.32-4.18-9.5-9.5-9.5z"/><path d="M81.7 30.4c-1.14 0-1.9.76-1.9 1.9v11.4c0 1.14.76 1.9 1.9 1.9s1.9-.76 1.9-1.9V32.3c0-1.14-.76-1.9-1.9-1.9zm-7.6-7.6c0-1.71.57-3.23 1.52-4.56.19-.19.38-.76.38-1.14 0-1.14-.76-1.9-1.9-1.9H47.5c-1.52 0-2.47 1.71-1.52 3.04.95 1.33 1.52 2.85 1.52 4.56 0 1.71-.57 3.23-1.52 4.56-.95 1.33 0 3.04 1.52 3.04h26.6c1.14 0 1.9-.76 1.9-1.9 0-.38-.19-.76-.38-1.14-.95-1.33-1.52-2.85-1.52-4.56zm-3.23 3.8H50.54c.38-1.14.76-2.47.76-3.8 0-1.33-.19-2.66-.76-3.8h20.33c-.38 1.14-.76 2.47-.76 3.8 0 1.33.19 2.66.76 3.8z"/><path d="M49.4 0h-19c-1.14 0-1.9.76-1.9 1.9v19c0 1.14.76 1.9 1.9 1.9h.19c.95 0 1.71-.57 1.9-1.52.76-3.42 3.8-6.08 7.41-6.08 3.61 0 6.65 2.66 7.41 6.08.19.95.95 1.52 1.9 1.52h.19c1.14 0 1.9-.76 1.9-1.9v-19c0-1.14-.76-1.9-1.9-1.9zm-1.9 14.25c-2.09-1.71-4.75-2.85-7.6-2.85-2.85 0-5.51 1.14-7.6 2.85V3.8h15.2v10.45z"/></symbol><symbol viewBox="0 0 93 114" id="icon-adv-6"><path d="M11.071 45.867a2.221 2.221 0 0 0-2.214 2.227 2.22 2.22 0 0 0 2.214 2.226 2.221 2.221 0 0 0 2.215-2.226c0-1.23-.992-2.227-2.215-2.227z"/><path d="M90.786 19.148c-24.13 0-37.097-12.965-41.358-17.225-.867-.868-1.303-1.303-1.762-1.59a2.204 2.204 0 0 0-2.333 0c-.315.197-.57.447-1.183 1.05-1.578 1.55-5.273 5.18-10.985 8.772-9.492 5.968-19.906 8.993-30.95 8.993A2.22 2.22 0 0 0 0 21.375v29.21c0 14.023 4.4 27.381 12.723 38.631 9.026 12.197 20.796 20.965 33.14 24.69a2.19 2.19 0 0 0 1.273 0c12.345-3.725 24.115-12.493 33.141-24.69C88.601 77.966 93 64.608 93 50.586V21.374a2.22 2.22 0 0 0-2.214-2.227zM88.57 50.585c0 13.058-4.096 25.497-11.846 35.972C68.42 97.78 57.709 105.884 46.5 109.444c-11.209-3.56-21.92-11.665-30.224-22.886C8.526 76.082 4.429 63.643 4.429 50.585V23.564c11.066-.38 21.512-3.616 31.084-9.633a66.945 66.945 0 0 0 10.998-8.646C51.155 9.923 64.4 22.817 88.57 23.567v27.018z"/><path d="M82.172 27.585c-12.187-1.357-23.75-6.316-34.367-14.74a2.204 2.204 0 0 0-2.717-.02c-10.516 8.092-22.69 13.319-34.28 14.715a2.222 2.222 0 0 0-1.95 2.211v9.436a2.22 2.22 0 0 0 2.213 2.227 2.22 2.22 0 0 0 2.215-2.227v-7.492c8.424-1.29 20.386-4.878 33.127-14.303 10.334 7.873 21.52 12.7 33.301 14.37v18.823c0 11.128-3.492 21.727-10.098 30.652C63.289 89.794 55.31 96.049 46.5 99.369c-8.81-3.32-16.788-9.574-23.114-18.129-5.331-7.201-8.7-15.677-9.742-24.511a2.215 2.215 0 0 0-2.46-1.949 2.224 2.224 0 0 0-1.937 2.473c1.133 9.607 4.794 18.82 10.585 26.645 7.03 9.505 15.995 16.4 25.928 19.939a2.209 2.209 0 0 0 1.48 0c9.933-3.54 18.9-10.436 25.93-19.942 7.178-9.699 10.973-21.217 10.973-33.31V29.798a2.222 2.222 0 0 0-1.97-2.213z"/><path d="M68.481 48.808a2.218 2.218 0 0 0-1.787-1.515L54.05 45.446 48.4 33.927a2.214 2.214 0 0 0-1.985-1.241c-.843 0-1.613.48-1.986 1.24l-5.653 11.52-12.643 1.847a2.218 2.218 0 0 0-1.788 1.515 2.238 2.238 0 0 0 .56 2.283l9.149 8.966-2.16 12.662c-.142.835.2 1.68.882 2.178a2.205 2.205 0 0 0 2.332.17l11.307-5.98 11.305 5.98c.746.393 1.65.328 2.332-.17a2.232 2.232 0 0 0 .881-2.178l-2.16-12.662 9.15-8.967c.603-.59.82-1.476.56-2.282zm-13.633 8.877a2.234 2.234 0 0 0-.637 1.971l1.597 9.369-8.364-4.424a2.204 2.204 0 0 0-2.061 0l-8.367 4.424 1.598-9.369a2.234 2.234 0 0 0-.637-1.97l-6.769-6.635 9.355-1.366a2.216 2.216 0 0 0 1.667-1.218l4.183-8.523 4.182 8.523a2.215 2.215 0 0 0 1.667 1.218l9.355 1.367-6.77 6.633z"/></symbol><symbol viewBox="0 0 102 88" id="icon-cold"><g fill="none"><path d="M62.87 24.992c0 13.25-10.727 23.992-23.96 23.992-13.234 0-23.962-10.742-23.962-23.992S25.676 1 38.91 1c13.233 0 23.96 10.742 23.96 23.992z" fill="#D6F0FF"/><path d="M90.569 58.008C90.569 71.258 79.841 82 66.608 82c-13.234 0-23.961-10.742-23.961-23.992s10.727-23.992 23.96-23.992c13.234 0 23.962 10.742 23.962 23.992z" fill="#D6F0FF"/><path d="M102 47.883c0 11.062-8.956 20.03-20.004 20.03-11.048 0-20.005-8.968-20.005-20.03 0-11.062 8.957-20.03 20.005-20.03 11.048 0 20.004 8.968 20.004 20.03zm-61.991 3.522c0 11.062-8.957 20.03-20.005 20.03C8.956 71.435 0 62.467 0 51.405c0-11.062 8.956-20.03 20.004-20.03 11.048 0 20.005 8.968 20.005 20.03z" fill="#D6F0FF"/><path d="M81.776 36.878c0 11.062-8.956 20.03-20.004 20.03-11.048 0-20.005-8.968-20.005-20.03 0-11.063 8.956-20.03 20.005-20.03 11.048 0 20.004 8.968 20.004 20.03z" fill="#D6F0FF"/><path d="M61.552 58.889c0 11.062-8.956 20.03-20.005 20.03-11.048 0-20.004-8.968-20.004-20.03 0-11.063 8.956-20.03 20.004-20.03 11.049 0 20.005 8.967 20.005 20.03z" fill="#D6F0FF"/><path d="M46.823 51.111c-.148-.094-.447-.272-.447-.717V10.34C46.376 4.638 41.726 0 36.011 0S25.646 4.638 25.646 10.34v40.095c0 .374-.301.584-.45.679A19.92 19.92 0 0 0 16 67.91c0 11.007 8.977 19.962 20.011 19.962 11.034 0 20.011-8.955 20.011-19.962a19.92 19.92 0 0 0-9.2-16.799zM36.01 84.231c-9.021 0-16.361-7.322-16.361-16.321a16.3 16.3 0 0 1 8.68-14.411l.224-.12s.742-.294.742-1.477V10.34c0-3.694 3.012-6.699 6.715-6.699s6.715 3.005 6.715 6.7v41.575c0 1.169.787 1.487.787 1.487l.18.096a16.3 16.3 0 0 1 8.68 14.41c0 9-7.34 16.322-16.362 16.322z" fill="#0081C9"/><path d="M39.234 60.233c-.18-.068-.546-.18-.546-.786v-12.36a2.673 2.673 0 0 0-2.677-2.67 2.673 2.673 0 0 0-2.677 2.67v12.36c0 .586-.402.73-.599.806-3.418 1.316-5.849 4.627-5.849 8.495 0 5.02 4.094 9.103 9.125 9.103 5.032 0 9.125-4.083 9.125-9.103 0-3.888-2.457-7.213-5.902-8.515zm24.5-49.192H78.1c.806 0 1.46-.652 1.46-1.456 0-.805-.654-1.457-1.46-1.457H63.734c-.806 0-1.46.652-1.46 1.457 0 .804.654 1.456 1.46 1.456zm0 9.386h19.232a1.458 1.458 0 0 0 0-2.913H63.734c-.806 0-1.46.652-1.46 1.456 0 .805.654 1.457 1.46 1.457zm0 9.386H78.1c.806 0 1.46-.653 1.46-1.457S78.906 26.9 78.1 26.9H63.734c-.806 0-1.46.652-1.46 1.456 0 .804.654 1.456 1.46 1.456zm19.232 9.386a1.458 1.458 0 0 0 0-2.913H63.734c-.806 0-1.46.652-1.46 1.456 0 .805.654 1.457 1.46 1.457h19.232zM63.774 73.013l8.447 10.903c.591.763 1.446 1.2 2.346 1.2.9 0 1.755-.438 2.346-1.2l8.447-10.903c.666-.859.82-1.813.425-2.617-.397-.805-1.248-1.267-2.336-1.267h-1.992a.493.493 0 0 1-.487-.485V56.682a3.406 3.406 0 0 0-3.406-3.399H72.04a3.406 3.406 0 0 0-3.407 3.399v11.962a.493.493 0 0 1-.486.485h-2.462c-1.09 0-1.94.462-2.337 1.267-.395.804-.24 1.758.425 2.617zm3.288-.97h1.086a3.406 3.406 0 0 0 3.406-3.399V56.682c0-.263.223-.486.487-.486h5.523c.263 0 .486.223.486.486v11.962a3.406 3.406 0 0 0 3.407 3.398h.676c.278 0 .172.15.172.15l-7.325 9.455s-.204.254-.413.254c-.22 0-.426-.27-.426-.27l-7.3-9.422s-.133-.167.22-.167z" fill="#0081C9"/></g></symbol><symbol viewBox="0 0 34 40" id="icon-download"><path d="M27.138 31.529a.666.666 0 0 0-.943 0l-1.528 1.528v-7.724a.667.667 0 0 0-1.334 0v7.724l-1.528-1.528a.666.666 0 1 0-.943.942l2.667 2.667a.665.665 0 0 0 .942 0l2.667-2.667a.666.666 0 0 0 0-.942z"/><path d="M24 20c-5.514 0-10 4.486-10 10s4.486 10 10 10 10-4.486 10-10-4.486-10-10-10zm0 18.667c-4.779 0-8.667-3.888-8.667-8.667s3.888-8.667 8.667-8.667 8.667 3.888 8.667 8.667-3.888 8.667-8.667 8.667zm-9.333-2.001H1.333V32A.667.667 0 0 0 0 32v5.333c0 .368.299.667.667.667h14a.667.667 0 0 0 0-1.334zm-14-7.999a.667.667 0 0 0 0 1.333h.006a.664.664 0 0 0 .664-.666.67.67 0 0 0-.67-.667z"/><path d="M27.805 10.862L17.138.195A.665.665 0 0 0 16.667 0h-16A.667.667 0 0 0 0 .667v26a.667.667 0 0 0 1.333 0V1.333H16v10c0 .368.299.667.667.667h10v6A.667.667 0 0 0 28 18v-6.667a.664.664 0 0 0-.195-.471zm-10.472-.195V2.276l8.391 8.39h-8.39z"/></symbol><symbol viewBox="0 0 102 88" id="icon-hot"><path d="M62.87 24.992c0 13.25-10.727 23.992-23.96 23.992-13.234 0-23.962-10.742-23.962-23.992S25.676 1 38.91 1c13.233 0 23.96 10.742 23.96 23.992z" fill="#FFF0D9"/><path d="M90.569 58.008C90.569 71.258 79.841 82 66.608 82c-13.234 0-23.961-10.742-23.961-23.992s10.727-23.992 23.96-23.992c13.234 0 23.962 10.742 23.962 23.992z" fill="#FFF0D9"/><path d="M102 47.883c0 11.062-8.956 20.03-20.004 20.03-11.048 0-20.005-8.968-20.005-20.03 0-11.062 8.957-20.03 20.005-20.03 11.048 0 20.004 8.968 20.004 20.03zm-61.991 3.522c0 11.062-8.957 20.03-20.005 20.03C8.956 71.435 0 62.467 0 51.405c0-11.062 8.956-20.03 20.004-20.03 11.048 0 20.005 8.968 20.005 20.03z" fill="#FFF0D9"/><path d="M81.776 36.878c0 11.062-8.956 20.03-20.004 20.03-11.048 0-20.005-8.968-20.005-20.03 0-11.063 8.956-20.03 20.005-20.03 11.048 0 20.004 8.968 20.004 20.03z" fill="#FFF0D9"/><path d="M61.552 58.889c0 11.062-8.956 20.03-20.005 20.03-11.048 0-20.004-8.968-20.004-20.03 0-11.063 8.956-20.03 20.004-20.03 11.049 0 20.005 8.967 20.005 20.03z" fill="#FFF0D9"/><path d="M46.823 51.111c-.148-.094-.447-.272-.447-.717V10.34C46.376 4.638 41.726 0 36.011 0S25.646 4.638 25.646 10.34v40.095c0 .374-.301.584-.45.679A19.92 19.92 0 0 0 16 67.91c0 11.007 8.977 19.962 20.011 19.962 11.035 0 20.011-8.955 20.011-19.962a19.92 19.92 0 0 0-9.2-16.799zM36.01 84.231c-9.021 0-16.361-7.322-16.361-16.321a16.3 16.3 0 0 1 8.68-14.411l.224-.12s.742-.294.742-1.477V10.34c0-3.694 3.012-6.699 6.715-6.699s6.715 3.005 6.715 6.7v41.575c0 1.169.787 1.487.787 1.487l.18.096a16.3 16.3 0 0 1 8.68 14.41c0 9-7.34 16.322-16.362 16.322z" fill="#F90"/><path d="M39.234 60.233c-.18-.068-.546-.18-.546-.786V18.323a2.673 2.673 0 0 0-2.677-2.67 2.673 2.673 0 0 0-2.676 2.67v41.123c0 .587-.403.732-.6.807-3.417 1.316-5.849 4.627-5.849 8.495 0 5.02 4.094 9.103 9.125 9.103 5.032 0 9.125-4.083 9.125-9.103 0-3.887-2.457-7.213-5.902-8.515zm24.501-49.192H78.1c.806 0 1.46-.652 1.46-1.456a1.46 1.46 0 0 0-1.46-1.457H63.735a1.458 1.458 0 0 0 0 2.913zm0 9.386h19.231a1.458 1.458 0 0 0 0-2.913H63.735c-.806 0-1.46.652-1.46 1.456 0 .805.653 1.457 1.46 1.457zm0 9.385H78.1c.806 0 1.46-.652 1.46-1.456a1.46 1.46 0 0 0-1.46-1.457H63.735a1.458 1.458 0 0 0 0 2.913zm19.231 9.387a1.458 1.458 0 0 0 0-2.913H63.735c-.806 0-1.46.652-1.46 1.456 0 .805.654 1.457 1.46 1.457h19.231zm2.394 26.187l-8.447-10.903c-.591-.762-1.446-1.2-2.346-1.2-.9 0-1.755.438-2.346 1.2l-8.447 10.903c-.666.86-.82 1.813-.425 2.618.397.804 1.248 1.266 2.336 1.266h1.992c.264 0 .487.222.487.485v11.963a3.406 3.406 0 0 0 3.407 3.398h5.522a3.406 3.406 0 0 0 3.407-3.398V69.755c0-.263.223-.485.486-.485h2.463c1.088 0 1.94-.462 2.336-1.266.396-.805.24-1.759-.425-2.618zm-3.288.971h-1.086a3.406 3.406 0 0 0-3.406 3.398v11.963a.493.493 0 0 1-.487.485h-5.522a.493.493 0 0 1-.487-.486V69.755a3.406 3.406 0 0 0-3.407-3.398h-.676c-.278 0-.172-.15-.172-.15l7.325-9.455s.204-.254.413-.254c.22 0 .426.27.426.27l7.3 9.422s.133.167-.22.167z" fill="#F90"/></symbol><symbol viewBox="0 0 18 24" id="icon-play"><path d="M17.694 10.851a.428.428 0 0 0-.091-.124 1.547 1.547 0 0 0-.212-.249 2.124 2.124 0 0 0-.302-.248l-6.926-4.912L3.206.376C2.752.034 2.178-.059 1.664.034a1.988 1.988 0 0 0-1.301.87 2.38 2.38 0 0 0-.272.56C.03 1.619 0 1.774 0 1.96v19.925c0 .59.242 1.12.605 1.492A1.91 1.91 0 0 0 2.026 24c.242 0 .484-.031.696-.124.212-.063.393-.187.575-.342l6.866-4.88 6.896-4.912c.03-.03.09-.062.12-.093.424-.342.696-.808.787-1.306.09-.497 0-1.056-.272-1.492zm-1.512 1.586l-6.957 4.942-6.836 4.85c-.03 0-.06.03-.06.03a.654.654 0 0 1-.151.093c-.06.032-.091.032-.152.032a.624.624 0 0 1-.332-.125.475.475 0 0 1-.121-.342v-9.916h-.03V2.086c0-.031 0-.063.03-.094 0-.03.03-.062.03-.093.03-.031.03-.031.03-.062a.359.359 0 0 1 .272-.155c.121-.032.212 0 .333.062.03.03.06.03.09.062l6.897 4.911 6.926 4.912c.03.03.06.03.06.062.031.03.031.062.061.062.06.124.09.248.09.373-.03.124-.09.248-.18.31z"/></symbol><symbol viewBox="0 0 18 18" id="icon-plus"><path fill-rule="evenodd" clip-rule="evenodd" d="M16.875 10.125h-6.75v6.75a1.125 1.125 0 1 1-2.25 0v-6.75h-6.75a1.125 1.125 0 1 1 0-2.25h6.75v-6.75a1.125 1.125 0 1 1 2.25 0v6.75h6.75a1.125 1.125 0 0 1 0 2.25z"/></symbol><symbol viewBox="0 0 68 82" id="icon-work-1"><path fill-rule="evenodd" clip-rule="evenodd" d="M6 12.5A1.5 1.5 0 0 1 4.5 11 6.5 6.5 0 0 1 11 4.5a1.5 1.5 0 0 1 0 3A3.5 3.5 0 0 0 7.5 11 1.5 1.5 0 0 1 6 12.5zm40 5a1.5 1.5 0 0 1-1.5-1.5A6.5 6.5 0 0 1 51 9.5a1.5 1.5 0 0 1 0 3 3.5 3.5 0 0 0-3.5 3.5 1.5 1.5 0 0 1-1.5 1.5zm-25 27a1.5 1.5 0 0 1-1.5-1.5 6.5 6.5 0 0 1 6.5-6.5 1.5 1.5 0 0 1 0 3 3.5 3.5 0 0 0-3.5 3.5 1.5 1.5 0 0 1-1.5 1.5zm31 13a1.5 1.5 0 0 1-1.5-1.5 6.5 6.5 0 0 1 6.5-6.5 1.5 1.5 0 0 1 0 3 3.5 3.5 0 0 0-3.5 3.5 1.5 1.5 0 0 1-1.5 1.5zm-45 15A1.5 1.5 0 0 1 5.5 71a6.5 6.5 0 0 1 6.5-6.5 1.5 1.5 0 0 1 0 3A3.5 3.5 0 0 0 8.5 71 1.5 1.5 0 0 1 7 72.5zm5 6.5a8 8 0 1 0 0-16 8 8 0 0 0 0 16zm45-15a8 8 0 1 0 0-16 8 8 0 0 0 0 16zM26 51a8 8 0 1 0 0-16 8 8 0 0 0 0 16zm25-27a8 8 0 1 0 0-16 8 8 0 0 0 0 16zm-40-5a8 8 0 1 0 0-16 8 8 0 0 0 0 16zm0 3c6.075 0 11-4.925 11-11S17.075 0 11 0 0 4.925 0 11s4.925 11 11 11zm51-6c0 6.075-4.925 11-11 11s-11-4.925-11-11S44.925 5 51 5s11 4.925 11 11zM26 54c6.075 0 11-4.925 11-11s-4.925-11-11-11-11 4.925-11 11 4.925 11 11 11zm42 2c0 6.075-4.925 11-11 11s-11-4.925-11-11 4.925-11 11-11 11 4.925 11 11zM23 71c0 6.075-4.925 11-11 11S1 77.075 1 71s4.925-11 11-11 11 4.925 11 11z"/></symbol><symbol viewBox="0 0 81 81" id="icon-work-2"><path fill-rule="evenodd" clip-rule="evenodd" d="M2.256 38.58C2.104 18.41 18.446 1.982 38.65 1.982h18.567v3H38.651c-18.546 0-33.536 15.077-33.395 33.576v.003l.17 29.372-3 .017-.17-29.369v-.001zm11.947 1.424C14.203 24.748 25.68 13.3 40.96 13.3h16.258v3H40.96c-13.629 0-23.757 10.111-23.757 23.704v27.937h-3V40.004z"/><path fill-rule="evenodd" clip-rule="evenodd" d="M60.148 3v12.282H62V3h-1.852zm-2-3a1 1 0 0 0-1 1v16.282a1 1 0 0 0 1 1H64a1 1 0 0 0 1-1V1a1 1 0 0 0-1-1h-5.852zM3 70.941v7.06h13.193v-7.06H3zm-2-3a1 1 0 0 0-1 1v11.06a1 1 0 0 0 1 1h17.193a1 1 0 0 0 1-1V68.94a1 1 0 0 0-1-1H1z"/><path d="M70 8.5a1.5 1.5 0 1 1-3 0 1.5 1.5 0 0 1 3 0zm5-4a1.5 1.5 0 1 1-3 0 1.5 1.5 0 0 1 3 0zm0 8a1.5 1.5 0 1 1-3 0 1.5 1.5 0 0 1 3 0zm6 3a1.5 1.5 0 1 1-3 0 1.5 1.5 0 0 1 3 0zm0-14a1.5 1.5 0 1 1-3 0 1.5 1.5 0 0 1 3 0zm0 7a1.5 1.5 0 1 1-3 0 1.5 1.5 0 0 1 3 0z"/></symbol><symbol viewBox="0 0 86 81" id="icon-work-3"><path d="M73.406 12.649C65.284 4.492 54.486 0 43 0 31.514 0 20.716 4.492 12.595 12.649 4.473 20.805 0 31.648 0 43.184a43.305 43.305 0 0 0 14.528 32.362c.529.47 1.336.42 1.803-.111a1.286 1.286 0 0 0-.11-1.81A40.734 40.734 0 0 1 2.554 43.184c0-10.85 4.207-21.05 11.846-28.722C22.04 6.79 32.197 2.565 43 2.565s20.96 4.226 28.6 11.898c7.639 7.672 11.846 17.872 11.846 28.722a40.732 40.732 0 0 1-13.666 30.44 1.286 1.286 0 0 0-.111 1.81 1.272 1.272 0 0 0 1.803.112A43.305 43.305 0 0 0 86 43.185c0-11.535-4.473-22.38-12.594-30.537z"/><path d="M60.076 69.333H31.445a1.28 1.28 0 0 0-1.277 1.283 1.28 1.28 0 0 0 1.277 1.282h28.631c1.007 0 1.826.823 1.826 1.834v2.87a1.832 1.832 0 0 1-1.826 1.833H25.923a1.832 1.832 0 0 1-1.825-1.834v-2.869c0-1.011.819-1.834 1.825-1.834h1.264a1.28 1.28 0 0 0 1.278-1.282 1.28 1.28 0 0 0-1.278-1.283h-1.264c-2.415 0-4.38 1.973-4.38 4.399v2.87c0 2.425 1.965 4.398 4.38 4.398h34.153c2.416 0 4.38-1.974 4.38-4.399v-2.869c0-2.426-1.964-4.399-4.38-4.399zM64.668 14.1c-6.292-4.735-13.785-7.238-21.669-7.238-14.548 0-27.622 8.692-33.307 22.144a1.285 1.285 0 0 0 1.175 1.784c.414 0 .819-.202 1.063-.57 5.515-8.294 14.726-13.245 24.64-13.245 7.22 0 14.172 2.639 19.579 7.43a1.274 1.274 0 0 0 1.803-.113 1.287 1.287 0 0 0-.113-1.81A32.042 32.042 0 0 0 36.57 14.41a32.017 32.017 0 0 0-17.886 5.45A33.502 33.502 0 0 1 43 9.427c7.327 0 14.29 2.325 20.136 6.726a1.274 1.274 0 0 0 1.788-.258 1.287 1.287 0 0 0-.256-1.796zm6.63 6.463a1.274 1.274 0 0 0-1.795-.203 1.287 1.287 0 0 0-.203 1.802c4.518 5.693 7.025 12.494 7.289 19.74h-8.213a32.074 32.074 0 0 0-3.398-10.345 1.274 1.274 0 0 0-1.727-.53 1.286 1.286 0 0 0-.528 1.736 29.545 29.545 0 0 1 3.263 10.566 1.28 1.28 0 0 0 1.269 1.139h10.634a1.28 1.28 0 0 0 1.278-1.283c0-8.312-2.721-16.135-7.869-22.622zm-2.114-5.795a1.273 1.273 0 0 0-1.702.276L45.318 43.161a1.286 1.286 0 0 0 .209 1.802c.553.44 1.356.346 1.794-.21L60.543 27.98 45.6 55.93a8.192 8.192 0 0 1-.401.608 2.787 2.787 0 0 1-1.881 1.046 2.78 2.78 0 0 1-2.067-.596 2.806 2.806 0 0 1-1.042-1.89 2.813 2.813 0 0 1 .596-2.078l3.995-5.068a1.287 1.287 0 0 0-.209-1.802 1.274 1.274 0 0 0-1.794.21l-3.992 5.065a5.368 5.368 0 0 0-1.134 3.963 5.357 5.357 0 0 0 1.99 3.607 5.31 5.31 0 0 0 3.945 1.138 5.324 5.324 0 0 0 3.592-1.997 10.626 10.626 0 0 0 .636-.962l21.775-40.728a1.286 1.286 0 0 0-.424-1.679z"/><path d="M44.231 53.807c-.625-.956-2.16-.61-2.324.523-.078.54.2 1.092.69 1.334a1.29 1.29 0 0 0 1.44-.203c.454-.42.541-1.139.194-1.654z"/></symbol><symbol viewBox="0 0 84 81" id="icon-work-4"><path fill-rule="evenodd" clip-rule="evenodd" d="M68.6 0a.92.92 0 0 1 .715.347l14.467 17.946a1 1 0 0 1 .13 1.034.932.932 0 0 1-.845.56h-7.652c-4.706 21.43-18.029 34.082-32.767 41.162-14.88 7.148-31.239 8.64-41.784 7.823-.488-.038-.866-.462-.864-.97.002-.51.381-.93.87-.966 42.104-2.992 57.688-32.011 60.547-47.05h-7.284a.931.931 0 0 1-.845-.56 1 1 0 0 1 .13-1.033L67.885.347A.92.92 0 0 1 68.6 0zM56.133 17.946h6.4a.92.92 0 0 1 .71.341.997.997 0 0 1 .212.784c-2.103 13.55-14.642 39.353-47.681 47.515 8.205-.928 17.414-3.13 26.091-7.299 14.503-6.966 27.484-19.4 31.89-40.576a.942.942 0 0 1 .912-.765h6.4L68.6 2.481 56.133 17.946zm12.28 24.296a.967.967 0 0 1 .654.926V80.03c0 .536-.418.97-.934.97H57.867c-.516 0-.934-.434-.934-.97V54.323a.99.99 0 0 1 .35-.757c2.3-1.912 6.89-6.21 10.086-10.955a.915.915 0 0 1 1.045-.368zM58.8 54.787V79.06h8.4V46.059c-2.925 3.756-6.353 6.986-8.4 8.727zm-4.207 1.603a.977.977 0 0 1 .474.844V80.03c0 .536-.418.97-.934.97H43.867c-.516 0-.934-.434-.934-.97V63.054c0-.384.218-.73.555-.887 3.645-1.684 5.128-2.612 8.626-4.803.473-.296.982-.615 1.54-.962a.903.903 0 0 1 .94-.013zM44.8 63.682V79.06h8.4V58.95l-.121.075c-3.33 2.085-4.914 3.078-8.279 4.657zm-3.686.502a.98.98 0 0 1 .42.81V80.03c0 .536-.419.97-.934.97H30.333c-.515 0-.933-.434-.933-.97V68.39c0-.44.284-.825.693-.938 2.341-.65 7.597-2.217 10.14-3.35a.903.903 0 0 1 .88.082zm-9.847 4.948v9.928h8.4V66.42c-2.563.985-6.231 2.094-8.4 2.712zm-4.105-.547c.234.183.371.47.371.774v10.67c0 .537-.418.971-.933.971H16.333c-.515 0-.933-.434-.933-.97V71.3c0-.49.35-.903.818-.963 3.73-.485 6.934-.963 10.126-1.91a.905.905 0 0 1 .818.158zm-9.895 3.57v6.905h8.4v-8.435c-2.703.711-5.43 1.135-8.4 1.53zM1.4 71.299c0-.535.418-.97.933-.97H12.6c.516 0 .933.435.933.97v8.73c0 .537-.417.971-.933.971H2.333c-.515 0-.933-.434-.933-.97V71.3zm1.867.97v6.79h8.4v-6.79h-8.4z"/></symbol><symbol viewBox="0 0 189 57" id="logotip"><path d="M145.643 40.33L189 27.021v5.915l-43.357 8.066v-.672zm0 2.689L189 51.085V57l-43.357-13.309v-.672zM189 38.986V44.9l-43.357-2.554v-.673L189 38.986z" fill="#4E5988"/><path d="M41.075 23.93h-12.35v5.914h4.833v6.588c-.67.403-2.013.537-3.087.537-5.772 0-9.933-3.495-9.933-9.41 0-6.99 5.369-9.68 11.812-9.68 1.88 0 4.832.539 7.249 1.883l.67-6.453c-2.952-1.075-7.114-1.344-8.993-1.344-11.007 0-18.658 4.302-18.658 15.594 0 11.293 8.994 15.46 16.913 15.46 2.685 0 6.443-.134 11.544-1.344V23.929zm6.041 18.014h20.806v-6.05H54.364v-5.915h12.35v-6.184h-12.35v-5.78h13.558v-6.05H47.116v29.978zM0 4.436C0 2.016 2.013 0 4.43 0c2.416 0 4.43 2.017 4.43 4.436 0 2.42-2.014 4.437-4.43 4.437C2.013 8.873 0 6.856 0 4.436zm8.188 7.529H.671v29.979h7.517v-29.98z" fill="#6EA75E"/><path fill-rule="evenodd" clip-rule="evenodd" d="M126.179 9.007a6.02 6.02 0 0 1 6.04-6.05 6.02 6.02 0 0 1 6.041 6.05 6.02 6.02 0 0 1-6.04 6.05c-3.356-.135-6.041-2.823-6.041-6.05zm1.208 0a4.816 4.816 0 0 1 4.832-4.84 4.816 4.816 0 0 1 4.833 4.84 4.816 4.816 0 0 1-4.833 4.84c-2.684-.135-4.832-2.286-4.832-4.84z" fill="#6EA75E"/><path fill-rule="evenodd" clip-rule="evenodd" d="M131.145 6.587h1.074c.671 0 1.343.135 1.343.941 0 .941-.672 1.076-1.343 1.076h-1.074V6.587zm-1.208 5.78h1.208V9.41h.806l1.745 2.958h1.342l-1.88-2.958c1.075-.134 1.746-.672 1.746-1.882 0-1.478-.94-2.016-2.55-2.016h-2.551v6.856m-10.604 17.476h-7.517l3.893-11.695 3.624 11.695zm-19.867 12.1h8.189l2.282-6.05h11.275l2.416 6.05h8.86l-11.813-29.98h-9.799l-11.41 29.98zm-25.37-.001h12.484c5.235 0 11.544-1.478 11.544-8.603 0-3.63-2.013-5.781-5.906-6.588 3.356-1.21 5.235-3.36 5.235-7.125 0-5.108-4.161-7.528-9.53-7.528H73.961v29.844zm7.383-24.332h2.685c2.685 0 5.1.269 5.1 2.957 0 2.555-2.684 3.227-5.234 3.227h-2.55V17.61zm0 11.561h2.82c2.684 0 5.771.27 5.771 3.495 0 3.092-2.953 3.496-5.906 3.496h-2.685v-6.99z" fill="#6EA75E"/></symbol><symbol viewBox="0 0 141 43" id="logotip-nocolor"><path d="M108.5 30l32.3-9.9v4.4l-32.3 6V30zm0 2l32.3 6v4.4l-32.3-9.9V32zm32.3-3v4.4l-32.3-1.9V31l32.3-2zM30.6 17.8h-9.2v4.4H25v4.9c-.5.3-1.5.4-2.3.4-4.3 0-7.4-2.6-7.4-7 0-5.2 4-7.2 8.8-7.2 1.4 0 3.6.4 5.4 1.4l.5-4.8c-2.2-.8-5.3-1-6.7-1-8.2 0-13.9 3.2-13.9 11.6C9.4 28.9 16.1 32 22 32c2 0 4.8-.1 8.6-1V17.8zm4.5 13.4h15.5v-4.5H40.5v-4.4h9.2v-4.6h-9.2v-4.3h10.1V8.9H35.1v22.3zM0 3.3C0 1.5 1.5 0 3.3 0c1.8 0 3.3 1.5 3.3 3.3 0 1.8-1.5 3.3-3.3 3.3C1.5 6.6 0 5.1 0 3.3zm6.1 5.6H.5v22.3h5.6V8.9z"/><path fill-rule="evenodd" clip-rule="evenodd" d="M94 6.7c0-2.5 2-4.5 4.5-4.5s4.5 2 4.5 4.5-2 4.5-4.5 4.5C96 11.1 94 9.1 94 6.7zm.9 0c0-2 1.6-3.6 3.6-3.6s3.6 1.6 3.6 3.6-1.6 3.6-3.6 3.6c-2-.1-3.6-1.7-3.6-3.6z"/><path fill-rule="evenodd" clip-rule="evenodd" d="M97.7 4.9h.8c.5 0 1 .1 1 .7 0 .7-.5.8-1 .8h-.8V4.9zm0 4.3V7h.6l1.3 2.2h1L99.2 7c.8-.1 1.3-.5 1.3-1.4 0-1.1-.7-1.5-1.9-1.5h-1.9v5.1h1zm-8.9 13h-5.6l2.9-8.7 2.7 8.7zm-14.8 9h6.1l1.7-4.5h8.4l1.8 4.5h6.6L89.8 8.9h-7.3L74 31.2zm-18.9 0h9.3c3.9 0 8.6-1.1 8.6-6.4 0-2.7-1.5-4.3-4.4-4.9 2.5-.9 3.9-2.5 3.9-5.3 0-3.8-3.1-5.6-7.1-5.6H55.1v22.2zm5.5-18.1h2c2 0 3.8.2 3.8 2.2 0 1.9-2 2.4-3.9 2.4h-1.9v-4.6zm0 8.6h2.1c2 0 4.3.2 4.3 2.6 0 2.3-2.2 2.6-4.4 2.6h-2v-5.2z"/></symbol><symbol viewBox="0 0 54 54" id="map-location"><path d="M26.7 0C16 .4 7.1 8.8 6.1 19.4c-.2 2.1-.1 4.2.3 6.2 0 0 0 .2.1.7.3 1.5.8 2.9 1.5 4.3 2.2 5.1 7.2 13.7 18.4 23 .7.6 1.7.6 2.4 0C40 44.3 45 35.7 47.2 30.6c.6-1.4 1.1-2.8 1.5-4.3.1-.4.1-.7.1-.7.3-1.3.4-2.7.4-4.1C49 9.4 39-.4 26.7 0zm.8 32.3c-5.8 0-10.5-4.7-10.5-10.5s4.7-10.5 10.5-10.5S38 16 38 21.8s-4.7 10.5-10.5 10.5z"/></symbol><symbol viewBox="0 0 29 29" id="modal-close"><path d="M14.5 29C6.492 29 0 22.508 0 14.5 0 6.493 6.492 0 14.5 0S29 6.493 29 14.5C29 22.508 22.508 29 14.5 29zm5.47-20.026a1.482 1.482 0 0 0-2.096 0l-3.299 3.3-3.45-3.45a1.481 1.481 0 1 0-2.095 2.095l3.45 3.45-3.212 3.21a1.482 1.482 0 0 0 2.096 2.096l3.211-3.211 3.062 3.062a1.482 1.482 0 1 0 2.095-2.096l-3.062-3.06 3.299-3.3a1.482 1.482 0 0 0 0-2.095z"/></symbol><symbol viewBox="0 0 500 500" id="ruble"><path d="M382.3 43.6C355.4 16.7 318.2 0 277.4 0H128.9v355.8H74.1v48.4h54.8V500h48.4v-95.8h170v-48.4h-170v-53h100.1c40.9 0 78-16.7 104.9-43.6s43.6-64 43.6-104.9v-5.8c0-40.9-16.7-78-43.6-104.9zm-4.8 110.7c0 27.5-11.3 52.5-29.4 70.7-18.2 18.2-43.2 29.4-70.7 29.4H177.3v-206h100.1c27.5 0 52.5 11.3 70.7 29.4 18.2 18.2 29.4 43.2 29.4 70.7v5.8z"/></symbol><symbol viewBox="0 0 15 24" id="slick-left"><path fill-rule="evenodd" clip-rule="evenodd" d="M13.768 22.768a2.5 2.5 0 0 1-3.536 0l-9-9a2.5 2.5 0 0 1 0-3.536l9-9a2.5 2.5 0 1 1 3.536 3.536L6.536 12l7.232 7.232a2.5 2.5 0 0 1 0 3.536z"/></symbol><symbol viewBox="0 0 15 24" id="slick-right"><path fill-rule="evenodd" clip-rule="evenodd" d="M1.232 1.232a2.5 2.5 0 0 1 3.536 0l9 9a2.5 2.5 0 0 1 0 3.536l-9 9a2.5 2.5 0 1 1-3.536-3.536L8.464 12 1.232 4.768a2.5 2.5 0 0 1 0-3.536z"/></symbol></svg>