<svg version="1" xmlns="http://www.w3.org/2000/svg" width="346.667" height="346.667" viewBox="0 0 260.000000 260.000000"><path d="M18.2 1.8c-2.3.7-6.4 3.4-9.1 5.8C-3 18.5-2.8 37 9.6 47.9c11.4 10 27.7 9.2 37.7-1.8 5.6-6.4 7.6-11.5 7.3-19.4C54 8.1 36.1-4.2 18.2 1.8zM209.4 30.4C58.9 120.8 68 115.1 68 118.2c0 1.5.2 2.8.3 2.8.2 0 3.9-1.3 8.3-2.9 4.3-1.6 21.2-7.7 37.4-13.6 16.2-5.8 36.1-13.1 44.3-16.1 37.9-13.9 46-16.9 72.2-26.4 15.4-5.6 28.3-10.5 28.8-10.9.4-.4.6-12 .5-25.7L259.5.3l-50.1 30.1zM4.7 74.7c-.4.3-.7 42.2-.7 93V260h47V74H28.2c-12.6 0-23.2.3-23.5.7zM248.8 105.1c-2.7.4-6.9 1-9.5 1.2-4.8.5-35.7 4.3-42.3 5.2-1.9.3-5.7.7-8.5 1-2.7.3-6.6.7-8.5 1-1.9.2-5.7.7-8.5 1-2.7.3-12 1.5-20.5 2.5-8.5 1.1-18 2.2-21 2.5-3 .3-6.6.7-8 1-2.3.4-10.1 1.4-16 2-6.3.7-14.7 1.7-16.6 2-1.1.2-5.2.7-9 1.1-3.8.4-7.2.9-7.6 1-.5.1-1.7.2-2.8.3-1.5.1-2 .8-2 3 0 3.1.1 3.2 13.5 4.6 2.8.3 6.8.8 9 1 2.2.3 6.3.7 9 1 2.8.3 6.6.8 8.5 1 1.9.2 5.8.7 8.5 1 2.8.3 6.6.8 8.5 1 6.3.8 11.3 1.4 21.5 2.5 5.5.6 11.4 1.3 13 1.5 1.7.2 5.7.7 9 1 5.3.5 11.5 1.3 26 3.1 9.7 1.2 12.3 1.5 16.5 1.9 12.1 1.2 21.6 2.3 44.3 5.1l4.7.6v-51.3l-3.2.3c-1.8.1-5.4.5-8 .9zM68 141.8c0 2.6 2.3 4.2 33.1 22.7 18.3 11 34.8 21 36.8 22.1 2 1.2 28.1 16.9 58.1 34.9 30 18.1 56.6 34.1 59.3 35.6l4.7 2.9-.2-25.7-.3-25.7-14.5-5.3c-8-3-39.9-14.6-71-26-31.1-11.3-60.1-21.9-64.5-23.5-4.4-1.6-8.4-3.1-9-3.2-.5-.2-1.7-.6-2.5-.9-2.1-.9-29.4-10.7-29.7-10.7-.2 0-.3 1.3-.3 2.8z"/></svg>