<svg version="1" xmlns="http://www.w3.org/2000/svg" width="346.667" height="346.667" viewBox="0 0 260.000000 260.000000"><path d="M25 1.2c-5.7 1.6-12.4 7.2-15.6 13-2.5 4.6-2.9 6.3-2.8 12.8 0 8.9 2.1 13.7 8.4 19.4 7.8 7.1 17.3 9 26.9 5.4C60.4 44.9 65.2 21 50.8 7.3 44.6 1.4 33.4-1.3 25 1.2zM10 162.9v90.6h22.5c21.8 0 22.5 0 22.6-2 .1-1.1.2-41.9.3-90.6l.1-88.6H10v90.6zM181.7 72.6c-.1.1-3.6.4-7.7.8-15.2 1.2-24.8 3.4-42 9.8-11.3 4.2-27.7 17.3-34.7 27.8-10.9 16.2-14.9 31.9-14.7 57.5.2 21.4 5.1 38 15.8 52.8 13.9 19.5 38.7 33.4 66.6 37.4 10.8 1.5 46.4.8 60-1.3 7.2-1 20.7-3.6 26-4.9.8-.2 1.8-.4 2.3-.4.9-.1.9-107.1 0-107.2-4.2-.5-71.8-.2-72.6.3-1.6 1-1.8 34.7-.2 34.9.5.1 7.1.2 14.5.3l13.5.1.1 19c.1 10.4-.1 19.6-.4 20.2-.7 2.2-8.3 3.5-19.4 3.5-5.9 0-11.1-.3-11.6-.6s-2.3-.8-4-1.1c-10-1.7-23.1-9.2-30-17-9.1-10.4-13.2-23.2-12.8-40.5.8-36 27.2-56.4 71.9-55.5 13.6.3 24.5 2.6 35.5 7.6 3.6 1.6 6.7 2.7 7 2.5.2-.3.5-1.9.7-3.8.4-3.8 1.5-13.7 2.1-18.8.2-1.9.6-6.3.9-9.6l.6-6.2-7.8-2c-15.8-4.2-25.9-5.4-45.6-5.7-7.5-.1-13.8 0-14 .1z"/></svg>