<svg width="15" height="19" viewBox="0 0 15 19" version="1.1" xmlns="http://www.w3.org/2000/svg" xmlns:xlink="http://www.w3.org/1999/xlink">
<path fill-rule="evenodd" clip-rule="evenodd" d="M 12.6698 12.6133C 15.0603 10.2334 14.4931 5.80955 11.4029 2.73338C 8.31272 -0.342789 3.86969 -0.907242 1.47913 1.47264C -0.911405 3.85252 -0.344206 8.27537 2.746 11.3515C 4.24835 12.8476 7.82099 17.8721 7.82099 17.8721C 7.82099 17.8721 11.4414 13.8359 12.6698 12.6133ZM 5.27976 5.25584C 6.03772 4.50096 7.45572 4.68944 8.44693 5.67577C 9.43811 6.66307 9.6272 8.0742 8.8692 8.82909C 8.11124 9.58397 6.69324 9.39549 5.70203 8.40819C 4.71085 7.42186 4.52176 6.00975 5.27976 5.25584Z" transform="translate(0.170837 0.681641)"/>
</svg>