<svg width="16" height="13" viewBox="0 0 16 13" version="1.1" xmlns="http://www.w3.org/2000/svg" xmlns:xlink="http://www.w3.org/1999/xlink">
<path d="M 13.5635 11.9146C 13.8983 11.9146 14.1884 11.8021 14.435 11.5799L 10.2154 7.28338C 10.1142 7.3572 10.0161 7.42897 9.92338 7.49722C 9.60761 7.73411 9.35133 7.91895 9.15453 8.05141C 8.95776 8.18417 8.69596 8.31949 8.36916 8.45764C 8.04214 8.59596 7.73749 8.6649 7.45487 8.6649L 7.43832 8.6649C 7.15567 8.6649 6.85101 8.59599 6.52402 8.45764C 6.19703 8.31949 5.93523 8.18417 5.73865 8.05141C 5.54188 7.91895 5.28574 7.73413 4.9698 7.49722C 4.88176 7.4315 4.78412 7.3594 4.67856 7.28223L 0.458221 11.5799C 0.704797 11.8021 0.995069 11.9146 1.32982 11.9146L 13.5635 11.9146Z" transform="translate(0.680878 0.915039)"/>
<path d="M 0.839503 4.57811C 0.52376 4.36377 0.243763 4.1183 0 3.8418L 0 10.3785L 3.71907 6.59178C 2.97505 6.0629 2.01641 5.39244 0.839503 4.57811Z" transform="translate(0.680878 0.915039)"/>
<path d="M 14.0623 4.57811C 12.9303 5.35825 11.9681 6.02986 11.1758 6.5933L 14.8934 10.3787L 14.8934 3.8418C 14.655 4.11274 14.378 4.35805 14.0623 4.57811Z" transform="translate(0.680878 0.915039)"/>
<path d="M 13.5645 0L 1.33087 0C 0.904075 0 0.575947 0.146744 0.346082 0.43993C 0.116028 0.733254 0.00119019 1.10009 0.00119019 1.54002C 0.00119019 1.89537 0.153586 2.2804 0.458243 2.69522C 0.7629 3.10988 1.08708 3.43558 1.43062 3.67249C 1.61895 3.80798 2.18689 4.20999 3.13445 4.87841C 3.64596 5.23933 4.09079 5.5539 4.47305 5.82537C 4.79888 6.05652 5.07988 6.25671 5.31188 6.42283C 5.33851 6.44186 5.3804 6.47236 5.43599 6.51284C 5.49588 6.55664 5.57168 6.61223 5.66518 6.68097C 5.84524 6.81357 5.99482 6.92075 6.11396 7.00263C 6.23293 7.08453 6.37708 7.17602 6.54619 7.27761C 6.71516 7.37907 6.87453 7.45536 7.02412 7.5061C 7.17373 7.55681 7.31223 7.58225 7.43964 7.58225L 7.45619 7.58225C 7.58357 7.58225 7.72209 7.55681 7.87173 7.5061C 8.02129 7.45536 8.18053 7.37923 8.34963 7.27761C 8.51858 7.17602 8.66254 7.08434 8.78189 7.00263C 8.90103 6.92075 9.05061 6.81359 9.2307 6.68097C 9.32401 6.61223 9.3998 6.55661 9.4597 6.51297C 9.51532 6.47234 9.55717 6.44202 9.58397 6.42283C 9.7647 6.29478 10.0464 6.09543 10.425 5.82771C 11.114 5.34026 12.1288 4.62281 13.4735 3.67249C 13.878 3.38487 14.2159 3.03777 14.4874 2.63171C 14.7585 2.22564 14.8944 1.7997 14.8944 1.35401C 14.8944 0.981646 14.7626 0.66302 14.4997 0.397642C 14.2364 0.132593 13.9247 0 13.5645 0Z" transform="translate(0.680878 0.915039)"/>
</svg>