<svg width="15" height="15" viewBox="0 0 15 15" version="1.1" xmlns="http://www.w3.org/2000/svg" xmlns:xlink="http://www.w3.org/1999/xlink">
<path d="M 14.6637 11.8643L 12.3472 9.54225C 11.8858 9.08166 11.1217 9.09565 10.6442 9.57439L 9.47715 10.7438C 9.40342 10.7031 9.3271 10.6606 9.24686 10.6154C 8.50987 10.2062 7.50117 9.64518 6.43972 8.58055C 5.37513 7.51367 4.8149 6.50113 4.4053 5.76199C 4.36207 5.68369 4.32066 5.60819 4.27976 5.53649L 5.06304 4.75261L 5.44813 4.36617C 5.92634 3.88674 5.93953 3.12113 5.4792 2.6592L 3.16268 0.336912C 2.70235 -0.124374 1.93791 -0.11038 1.45969 0.369047L 0.80682 1.02716L 0.824661 1.04491C 0.605744 1.32488 0.42281 1.64778 0.286676 1.99599C 0.161186 2.32744 0.083057 2.64373 0.0473322 2.96067C -0.258549 5.50224 0.900248 7.82504 4.04507 10.977C 8.39218 15.3337 11.8954 15.0046 12.0465 14.9885C 12.3757 14.9491 12.6911 14.8702 13.0117 14.7455C 13.3561 14.6106 13.678 14.4275 13.9572 14.2086L 13.9715 14.2213L 14.6329 13.5722C 15.1101 13.0928 15.1238 12.3269 14.6637 11.8643Z"/>
</svg>