<svg width="27" height="23" viewBox="0 0 27 23" version="1.1" xmlns="http://www.w3.org/2000/svg" xmlns:xlink="http://www.w3.org/1999/xlink">
<path d="M 17.4959 2.3727C 23.9022 6.14821 26.9016 13.0878 24.1952 17.8727C 21.4889 22.6576 14.1016 23.4759 7.69525 19.7004C 1.28891 15.9249 -1.7105 8.98529 0.99586 4.20038C 3.70222 -0.584527 11.0895 -1.40281 17.4959 2.3727Z" transform="translate(0.904297 0.463379)" fill="#FDBCBC"/>
<path fill-rule="evenodd" clip-rule="evenodd" d="M 18.0684 8.48618C 18.6518 9.07436 18.6479 10.0241 18.0597 10.6075L 12.6802 15.943C 12.0955 16.523 11.1524 16.523 10.5676 15.943L 7.45322 12.854C 6.86503 12.2706 6.86114 11.3209 7.44452 10.7327C 8.0279 10.1445 8.97764 10.1406 9.56583 10.724L 11.6239 12.7653L 15.9471 8.47748C 16.5353 7.8941 17.485 7.89799 18.0684 8.48618Z" transform="translate(0.904297 0.463379)"/>
</svg>