<svg width="81" height="81" viewBox="0 0 81 81" version="1.1" xmlns="http://www.w3.org/2000/svg" xmlns:xlink="http://www.w3.org/1999/xlink">
<path fill-rule="evenodd" clip-rule="evenodd" d="M 2.25594 38.5798C 2.10356 18.4095 18.4458 1.98242 38.6513 1.98242L 57.2181 1.98242L 57.2181 4.98242L 38.6513 4.98242C 20.1051 4.98242 5.11542 20.0592 5.25586 38.5584L 5.25588 38.5611L 5.42572 67.9326L 2.42577 67.95L 2.25595 38.5812L 2.25594 38.5798ZM 14.2033 40.0042C 14.2033 24.7484 25.6801 13.3001 40.9601 13.3001L 57.2181 13.3001L 57.2181 16.3001L 40.9601 16.3001C 27.331 16.3001 17.2033 26.4112 17.2033 40.0042L 17.2033 67.9413L 14.2033 67.9413L 14.2033 40.0042Z" />
<path fill-rule="evenodd" clip-rule="evenodd" d="M 60.1484 3L 60.1484 15.2824L 62.0001 15.2824L 62.0001 3L 60.1484 3ZM 58.1484 0C 57.5962 0 57.1484 0.447715 57.1484 1L 57.1484 17.2824C 57.1484 17.8347 57.5962 18.2824 58.1484 18.2824L 64.0001 18.2824C 64.5524 18.2824 65.0001 17.8347 65.0001 17.2824L 65.0001 1C 65.0001 0.447715 64.5524 0 64.0001 0L 58.1484 0Z" />
<path fill-rule="evenodd" clip-rule="evenodd" d="M 3 70.9414L 3 78.0002L 16.193 78.0002L 16.193 70.9414L 3 70.9414ZM 1 67.9414C 0.447715 67.9414 0 68.3891 0 68.9414L 0 80.0002C 0 80.5525 0.447715 81.0002 1 81.0002L 18.193 81.0002C 18.7453 81.0002 19.193 80.5525 19.193 80.0002L 19.193 68.9414C 19.193 68.3891 18.7453 67.9414 18.193 67.9414L 1 67.9414Z" />
<path d="M 70 8.5C 70 9.32843 69.3284 10 68.5 10C 67.6716 10 67 9.32843 67 8.5C 67 7.67157 67.6716 7 68.5 7C 69.3284 7 70 7.67157 70 8.5Z" />
<path d="M 75 4.5C 75 5.32843 74.3284 6 73.5 6C 72.6716 6 72 5.32843 72 4.5C 72 3.67157 72.6716 3 73.5 3C 74.3284 3 75 3.67157 75 4.5Z" />
<path d="M 75 12.5C 75 13.3284 74.3284 14 73.5 14C 72.6716 14 72 13.3284 72 12.5C 72 11.6716 72.6716 11 73.5 11C 74.3284 11 75 11.6716 75 12.5Z" />
<path d="M 81 15.5C 81 16.3284 80.3284 17 79.5 17C 78.6716 17 78 16.3284 78 15.5C 78 14.6716 78.6716 14 79.5 14C 80.3284 14 81 14.6716 81 15.5Z" />
<path d="M 81 1.5C 81 2.32843 80.3284 3 79.5 3C 78.6716 3 78 2.32843 78 1.5C 78 0.671573 78.6716 0 79.5 0C 80.3284 0 81 0.671573 81 1.5Z" />
<path d="M 81 8.5C 81 9.32843 80.3284 10 79.5 10C 78.6716 10 78 9.32843 78 8.5C 78 7.67157 78.6716 7 79.5 7C 80.3284 7 81 7.67157 81 8.5Z" />
</svg>