<svg width="114" height="114" viewBox="0 0 114 114" version="1.1" xmlns="http://www.w3.org/2000/svg" xmlns:xlink="http://www.w3.org/1999/xlink">
<path d="M 87.354 50.336C 87.354 46.7269 84.4181 43.7912 80.8091 43.7912L 68.7807 43.7912C 71.7031 40.5063 73.613 36.7659 73.982 33.4103C 74.2073 31.3607 73.5741 29.3263 72.2441 27.8285C 71.0287 26.4594 69.3665 25.6964 67.5639 25.6797C 67.543 25.6794 67.522 25.6794 67.5013 25.6794C 65.7577 25.6794 64.1212 26.351 62.8861 27.5747C 61.6508 28.7986 60.9673 30.4291 60.9593 32.1692C 60.8958 32.5502 60.2256 33.8636 58.5858 35.4231C 57.2431 36.7003 54.924 38.4559 51.4997 39.5676C 50.1571 40.0036 48.9301 40.8063 47.8528 41.9534C 47.2875 42.555 46.441 43.386 45.3929 44.22C 44.8786 43.9475 44.2937 43.7916 43.6723 43.7916L 32.2484 43.7916C 30.2143 43.7916 28.5595 45.4464 28.5595 47.4806L 28.5595 77.944C 28.5595 79.9782 30.2143 81.633 32.2484 81.633L 43.6723 81.633C 45.059 81.633 46.2682 80.863 46.8983 79.729L 76.0491 79.729C 79.1331 79.729 81.642 77.2201 81.642 74.1361C 81.642 73.0992 81.3586 72.1275 80.8647 71.2939C 82.4716 70.3102 83.5459 68.5383 83.5459 66.5202C 83.5459 65.4833 83.2625 64.5116 82.7686 63.678C 84.3756 62.6943 85.4499 60.9224 85.4499 58.9042C 85.4499 57.7371 85.0905 56.6523 84.4766 55.7545C 86.2118 54.576 87.354 52.5868 87.354 50.336ZM 80.8091 53.3109L 79.857 53.3109C 78.8713 53.3109 78.0719 54.11 78.0719 55.0959C 78.0719 56.0816 78.8711 56.8809 79.857 56.8809C 80.9725 56.8809 81.88 57.7885 81.88 58.904C 81.88 60.0195 80.9725 60.927 79.857 60.927L 77.953 60.927C 76.9673 60.927 76.168 61.7262 76.168 62.7121C 76.168 63.6978 76.9671 64.4971 77.953 64.4971C 79.0685 64.4971 79.9761 65.4047 79.9761 66.5202C 79.9761 67.6357 79.0685 68.5432 77.953 68.5432L 76.0491 68.5432C 75.0634 68.5432 74.2641 69.3423 74.2641 70.3283C 74.2641 71.314 75.0632 72.1133 76.0491 72.1133C 77.1646 72.1133 78.0722 73.0208 78.0722 74.1363C 78.0722 75.2519 77.1646 76.1594 76.0491 76.1594L 47.3612 76.1594L 47.3612 58.9047C 47.3612 57.919 46.5621 57.1196 45.5762 57.1196C 44.5903 57.1196 43.7912 57.9187 43.7912 58.9047L 43.7912 77.9442C 43.7912 78.0099 43.7379 78.0631 43.6723 78.0631L 32.2484 78.0631C 32.1828 78.0631 32.1295 78.0099 32.1295 77.9442L 32.1295 47.4799C 32.1295 47.4143 32.1828 47.361 32.2484 47.361L 43.6723 47.361C 43.7379 47.361 43.7912 47.4143 43.7912 47.4799L 43.7912 51.288C 43.7912 52.2737 44.5903 53.0731 45.5762 53.0731C 46.5621 53.0731 47.3612 52.274 47.3612 51.288L 47.3612 47.4799C 47.3612 47.3933 47.3541 47.3085 47.3481 47.2234C 48.6865 46.1874 49.7568 45.14 50.455 44.3968C 51.1156 43.693 51.8379 43.2107 52.6019 42.9629C 56.8034 41.5989 59.6309 39.4026 61.2627 37.8004C 63.3081 35.7923 64.5289 33.6989 64.5289 32.2002C 64.5289 31.4084 64.8377 30.6663 65.3986 30.1105C 65.9664 29.5479 66.7183 29.2506 67.5307 29.2495C 68.5313 29.2589 69.194 29.7708 69.5741 30.1987C 70.2255 30.9324 70.5462 31.9873 70.4328 33.0202C 70.043 36.5669 67.2065 40.951 63.2068 44.1889C 62.6192 44.6647 62.395 45.4591 62.6472 46.1718C 62.8995 46.8846 63.5737 47.361 64.3298 47.361L 80.8086 47.361C 82.4491 47.361 83.7835 48.6954 83.7835 50.336C 83.7835 51.9765 82.4494 53.3109 80.8091 53.3109Z"/>
<path d="M 37.9605 70.4275C 36.9748 70.4275 36.1661 71.2362 36.1661 72.2219C 36.1661 73.2076 36.9748 74.0163 37.9605 74.0163C 38.9462 74.0163 39.7548 73.2076 39.7548 72.2219C 39.7551 71.2364 38.9464 70.4275 37.9605 70.4275Z"/>
<path d="M 110.818 56.9999L 113.885 48.8857C 114.108 48.2954 114.003 47.6312 113.608 47.1385L 108.184 40.3688L 108.593 31.7042C 108.623 31.074 108.317 30.4744 107.79 30.1282L 100.54 25.3658L 98.2515 16.9988C 98.0849 16.3901 97.6093 15.9145 97.0008 15.7482L 88.6339 13.4597L 83.8715 6.2098C 83.525 5.68233 82.9256 5.37818 82.2955 5.4069L 73.6308 5.8157L 66.8612 0.392014C 66.3687 -0.00253251 65.7045 -0.107849 65.114 0.115253L 56.9998 3.18167L 48.886 0.115475C 48.2953 -0.107849 47.6313 -0.00253251 47.1388 0.392237L 40.3692 5.81592L 31.7045 5.40712C 31.0713 5.37729 30.4748 5.68277 30.1285 6.21002L 25.3664 13.4602L 16.9994 15.7486C 16.3907 15.9152 15.9151 16.3908 15.7487 16.9993L 13.4603 25.3663L 6.21017 30.1284C 5.68269 30.4749 5.37743 31.0743 5.40727 31.7044L 5.81606 40.3691L 0.392388 47.1387C -0.00215852 47.6312 -0.107475 48.2954 0.115626 48.8859L 3.18182 56.9999L 0.115404 65.114C -0.10792 65.7042 -0.00260386 66.3684 0.392165 66.8612L 5.81584 73.6308L 5.40705 82.2955C 5.37721 82.9256 5.68269 83.5252 6.20994 83.8714L 13.4601 88.6338L 15.7485 97.0008C 15.9151 97.6095 16.3907 98.0851 16.9992 98.2514L 25.3662 100.54L 30.1283 107.79C 30.4748 108.318 31.0753 108.621 31.7043 108.593L 40.3689 108.184L 47.1386 113.608C 47.6311 114.003 48.2955 114.108 48.8857 113.885L 57 110.818L 65.1143 113.885C 65.3191 113.962 65.5326 114 65.745 114C 66.1449 114 66.5397 113.865 66.8612 113.608L 73.6308 108.184L 82.2955 108.593C 82.9276 108.621 83.525 108.317 83.8715 107.79L 88.6339 100.54L 97.0008 98.2514C 97.6096 98.0849 98.0851 97.6093 98.2515 97.0008L 100.54 88.6338L 107.79 83.8714C 108.318 83.525 108.623 82.9256 108.593 82.2955L 108.184 73.6308L 113.608 66.8612C 114.002 66.3686 114.108 65.7044 113.885 65.114L 110.818 56.9999ZM 107.24 57.6309L 110.185 65.4237L 104.976 71.925C 104.704 72.2641 104.566 72.691 104.586 73.1251L 104.979 81.4465L 98.0163 86.0201C 97.6532 86.2585 97.3891 86.6217 97.2745 87.0412L 95.0766 95.0766L 87.0412 97.2744C 86.6219 97.3891 86.259 97.653 86.0201 98.0163L 81.4465 104.979L 73.1252 104.586C 72.6908 104.566 72.2642 104.704 71.9251 104.976L 65.4237 110.185L 57.631 107.24C 57.4277 107.163 57.2137 107.125 57 107.125C 56.7863 107.125 56.5723 107.164 56.369 107.24L 48.5763 110.185L 42.0749 104.976C 41.7358 104.704 41.3083 104.566 40.8748 104.586L 32.5535 104.979L 27.9799 98.0163C 27.7414 97.6532 27.3783 97.3891 26.9588 97.2744L 18.9234 95.0766L 16.7255 87.0412C 16.6109 86.6219 16.347 86.259 15.9837 86.0201L 9.02098 81.4465L 9.41374 73.1251C 9.43422 72.6907 9.29551 72.2641 9.02365 71.925L 3.81483 65.4237L 6.7599 57.6309C 6.91354 57.2244 6.91354 56.7755 6.7599 56.3689L 3.81483 48.5762L 9.02365 42.0748C 9.29551 41.7357 9.43422 41.3089 9.41374 40.8747L 9.02098 32.5534L 15.9837 27.9798C 16.3468 27.7413 16.6109 27.3782 16.7255 26.9587L 18.9234 18.9233L 26.9588 16.7254C 27.3781 16.6107 27.741 16.3469 27.9799 15.9835L 32.5535 9.02084L 40.8748 9.4136C 41.3085 9.43386 41.7358 9.29537 42.0749 9.02351L 48.5763 3.81469L 56.369 6.75976C 56.7758 6.91339 57.2244 6.91339 57.631 6.75976L 65.4237 3.81469L 71.9251 9.02351C 72.2642 9.29559 72.6912 9.43409 73.1252 9.4136L 81.4465 9.02084L 86.0201 15.9835C 86.2586 16.3467 86.6217 16.6107 87.0412 16.7254L 95.0766 18.9233L 97.2745 26.9587C 97.3891 27.378 97.653 27.7409 98.0163 27.9798L 104.979 32.5534L 104.586 40.8747C 104.566 41.3091 104.704 41.7357 104.976 42.0748L 110.185 48.5762L 107.24 56.3689C 107.087 56.7757 107.087 57.2244 107.24 57.6309Z"/>
<path d="M 90.5396 26.1785C 90.0954 25.6949 89.6347 25.2139 89.1696 24.749C 88.7044 24.2841 88.2237 23.8232 87.7401 23.379C 87.014 22.7124 85.8849 22.7605 85.2181 23.4868C 84.5515 24.2129 84.5995 25.3422 85.3259 26.0088C 85.7718 26.4185 86.2158 26.8438 86.6451 27.2731C 87.0741 27.7021 87.4996 28.1463 87.9096 28.5925C 88.2616 28.9759 88.7425 29.1703 89.225 29.1703C 89.6563 29.1703 90.0889 29.0149 90.4316 28.7003C 91.1579 28.0339 91.2062 26.9046 90.5396 26.1785Z"/>
<path d="M 81.4013 18.5082C 72.7934 13.0242 62.4297 10.587 52.2203 11.6439C 41.8612 12.7171 32.0933 17.3711 24.7153 24.7488C 16.5957 32.8684 11.8683 43.6548 11.4039 55.1209C 10.9423 66.5196 14.7176 77.5865 22.0348 86.2826C 22.3877 86.702 22.8927 86.9182 23.4017 86.9182C 23.8073 86.9182 24.2153 86.7806 24.5499 86.4992C 25.304 85.8644 25.4011 84.7384 24.7666 83.9843C 18.0243 75.9711 14.5455 65.7721 14.9708 55.2657C 15.3987 44.6979 19.7557 34.7568 27.2394 27.2733C 34.0393 20.4732 43.0417 16.1837 52.5879 15.1949C 62.0006 14.2196 71.5517 16.466 79.4829 21.519C 80.3145 22.0487 81.4176 21.8042 81.9473 20.9728C 82.4772 20.1412 82.2325 19.0379 81.4013 18.5082Z"/>
<path d="M 95.4106 32.5174C 94.8809 31.6858 93.777 31.4413 92.946 31.971C 92.1144 32.5007 91.8702 33.6042 92.3999 34.4353C 97.4528 42.3668 99.6987 51.9183 98.724 61.3304C 97.7351 70.8766 93.4457 79.8788 86.6458 86.6792C 79.1621 94.1627 69.2209 98.5198 58.6535 98.9478C 48.1488 99.3748 37.9478 95.8945 29.9348 89.1525C 29.1807 88.5177 28.0547 88.6147 27.4199 89.3691C 26.7851 90.1232 26.8822 91.2492 27.6366 91.884C 35.8573 98.8008 46.1952 102.553 56.9305 102.553C 57.5515 102.553 58.175 102.54 58.7984 102.515C 70.2645 102.051 81.0506 97.3233 89.1705 89.2037C 96.5484 81.8257 101.203 72.0576 102.275 61.6985C 103.332 51.4884 100.895 41.125 95.4106 32.5174Z"/>
</svg>