<svg width="114" height="114" viewBox="0 0 114 114" version="1.1" xmlns="http://www.w3.org/2000/svg" xmlns:xlink="http://www.w3.org/1999/xlink">
<path d="M 18.9999 102.6C 17.8599 102.6 17.1 103.36 17.1 104.5C 17.1 105.64 17.8599 106.4 18.9999 106.4C 20.1399 106.4 20.8998 105.64 20.8998 104.5C 20.8998 103.36 20.1399 102.6 18.9999 102.6Z"/>
<path d="M 11.4 102.6C 10.26 102.6 9.50006 103.36 9.50006 104.5C 9.50006 105.64 10.26 106.4 11.4 106.4C 12.54 106.4 13.2999 105.64 13.2999 104.5C 13.2999 103.36 12.54 102.6 11.4 102.6Z"/>
<path d="M 26.6001 102.6C 25.4601 102.6 24.7001 103.36 24.7001 104.5C 24.7001 105.64 25.4601 106.4 26.6001 106.4C 27.7401 106.4 28.5 105.64 28.5 104.5C 28.5 103.36 27.7401 102.6 26.6001 102.6Z"/>
<path d="M 34.2 102.6C 33.06 102.6 32.3001 103.36 32.3001 104.5C 32.3001 105.64 33.06 106.4 34.2 106.4C 35.34 106.4 36.1 105.64 36.1 104.5C 36.1 103.36 35.34 102.6 34.2 102.6Z"/>
<path d="M 41.7999 102.6C 40.6599 102.6 39.9 103.36 39.9 104.5C 39.9 105.64 40.6599 106.4 41.7999 106.4C 42.9399 106.4 43.6999 105.64 43.6999 104.5C 43.6999 103.36 42.9399 102.6 41.7999 102.6Z"/>
<path d="M 49.4 102.6C 48.26 102.6 47.5001 103.36 47.5001 104.5C 47.5001 105.64 48.26 106.4 49.4 106.4C 50.54 106.4 51.3 105.64 51.3 104.5C 51.3 103.36 50.54 102.6 49.4 102.6Z"/>
<path d="M 57 102.6C 55.86 102.6 55.1001 103.36 55.1001 104.5C 55.1001 105.64 55.86 106.4 57 106.4C 58.14 106.4 58.8999 105.64 58.8999 104.5C 58.8999 103.36 58.14 102.6 57 102.6Z"/>
<path d="M 64.5999 102.6C 63.4599 102.6 62.7 103.36 62.7 104.5C 62.7 105.64 63.4599 106.4 64.5999 106.4C 65.7399 106.4 66.4999 105.64 66.4999 104.5C 66.4999 103.36 65.7399 102.6 64.5999 102.6Z"/>
<path d="M 72.2 102.6C 71.06 102.6 70.3001 103.36 70.3001 104.5C 70.3001 105.64 71.06 106.4 72.2 106.4C 73.34 106.4 74.1 105.64 74.1 104.5C 74.1 103.36 73.34 102.6 72.2 102.6Z"/>
<path d="M 79.8 102.6C 78.66 102.6 77.9001 103.36 77.9001 104.5C 77.9001 105.64 78.66 106.4 79.8 106.4C 80.94 106.4 81.6999 105.64 81.6999 104.5C 81.6999 103.36 80.94 102.6 79.8 102.6Z"/>
<path d="M 87.3999 102.6C 86.2599 102.6 85.5 103.36 85.5 104.5C 85.5 105.64 86.2599 106.4 87.3999 106.4C 88.5399 106.4 89.2999 105.64 89.2999 104.5C 89.2999 103.36 88.5399 102.6 87.3999 102.6Z"/>
<path d="M 95.0001 102.6C 93.8601 102.6 93.1002 103.36 93.1002 104.5C 93.1002 105.64 93.8601 106.4 95.0001 106.4C 96.1401 106.4 96.9 105.64 96.9 104.5C 96.9 103.36 96.1401 102.6 95.0001 102.6Z"/>
<path d="M 102.6 102.6C 101.46 102.6 100.7 103.36 100.7 104.5C 100.7 105.64 101.46 106.4 102.6 106.4C 103.74 106.4 104.5 105.64 104.5 104.5C 104.5 103.36 103.74 102.6 102.6 102.6Z"/>
<path d="M 104.5 95L 9.50007 95C 4.17993 95 0 99.1799 0 104.5C 0 109.82 4.17993 114 9.50007 114L 104.5 114C 109.82 114 114 109.82 114 104.5C 114 99.1799 109.82 95 104.5 95ZM 104.5 110.2L 9.50007 110.2C 6.27 110.2 3.80007 107.73 3.80007 104.5C 3.80007 101.27 6.27 98.7999 9.50007 98.7999L 104.5 98.7999C 107.73 98.7999 110.2 101.27 110.2 104.5C 110.2 107.73 107.73 110.2 104.5 110.2Z"/>
<path d="M 28.6899 68.3999L 9.30994 68.3999C 6.27001 68.3999 3.79987 70.8698 3.79987 73.91L 3.79987 98.8L 34.2 98.8L 34.2 73.91C 34.2 70.8698 31.7301 68.3999 28.6899 68.3999ZM 30.3999 95L 7.59994 95L 7.59994 73.91C 7.59994 72.9599 8.35987 72.2 9.30994 72.2L 28.6899 72.2C 29.64 72.2 30.3999 72.9599 30.3999 73.91L 30.3999 95Z"/>
<path d="M 66.69 68.3999L 47.31 68.3999C 44.2701 68.3999 41.7999 70.8698 41.7999 73.91L 41.7999 98.8L 72.1998 98.8L 72.1998 73.91C 72.2001 70.8698 69.7299 68.3999 66.69 68.3999ZM 68.4 95L 45.6 95L 45.6 73.91C 45.6 72.9599 46.3599 72.2 47.31 72.2L 66.69 72.2C 67.6401 72.2 68.4 72.9599 68.4 73.91L 68.4 95Z"/>
<path d="M 104.69 68.3999L 85.3101 68.3999C 82.2701 68.3999 79.8 70.8698 79.8 73.91L 79.8 98.8L 110.2 98.8L 110.2 73.91C 110.2 70.8698 107.73 68.3999 104.69 68.3999ZM 106.4 95L 83.6001 95L 83.6001 73.91C 83.6001 72.9599 84.36 72.2 85.3101 72.2L 104.69 72.2C 105.64 72.2 106.4 72.9599 106.4 73.91L 106.4 95Z"/>
<path d="M 39.9 11.4C 33.63 11.4 28.5 16.53 28.5 22.8C 28.5 29.07 33.63 34.2 39.9 34.2C 46.17 34.2 51.3 29.07 51.3 22.8C 51.3 16.53 46.17 11.4 39.9 11.4ZM 39.9 30.4C 35.7201 30.4 32.3001 26.98 32.3001 22.8C 32.3001 18.6201 35.7201 15.2001 39.9 15.2001C 44.0799 15.2001 47.4999 18.6201 47.4999 22.8C 47.4999 26.98 44.0799 30.4 39.9 30.4Z"/>
<path d="M 81.6999 11.4C 75.4299 11.4 70.2999 16.53 70.2999 22.8C 70.2999 29.07 75.4299 34.2 81.6999 34.2C 87.9699 34.2 93.0999 29.07 93.0999 22.8C 93.0999 16.53 87.9699 11.4 81.6999 11.4ZM 81.6999 30.4C 77.52 30.4 74.1 26.98 74.1 22.8C 74.1 18.6201 77.52 15.2001 81.6999 15.2001C 85.8799 15.2001 89.2999 18.6201 89.2999 22.8C 89.3001 26.98 85.8801 30.4 81.6999 30.4Z"/>
<path d="M 81.51 41.99C 76.19 41.99 72.0099 46.1699 72.0099 51.4901C 72.0099 54.7201 72.5799 57.0001 74.4798 58.52C 75.2397 59.2799 76.3797 59.09 77.1399 58.3301C 78.09 57.38 78.09 56.24 77.3298 55.67C 76.3797 54.7199 75.9999 53.5799 75.9999 51.2999C 75.9999 48.0698 78.4698 45.5999 81.6999 45.5999C 84.93 45.5999 87.3999 48.0698 87.3999 51.2999C 87.3999 53.5799 87.0198 54.7199 86.07 55.67C 85.31 56.4299 85.1199 57.5699 85.88 58.3301C 86.64 59.09 87.78 59.2801 88.5401 58.52C 90.44 56.81 91.01 54.53 91.01 51.4901C 91.01 46.1699 86.8299 41.99 81.51 41.99Z"/>
<path d="M 81.6999 30.4C 80.5599 30.4 79.8 31.1598 79.8 32.2998L 79.8 43.6998C 79.8 44.8398 80.5599 45.5999 81.6999 45.5999C 82.8399 45.5999 83.5998 44.8398 83.5998 43.6998L 83.5998 32.2998C 83.6001 31.1601 82.8399 30.4 81.6999 30.4Z"/>
<path d="M 74.1 22.8C 74.1 21.09 74.67 19.5699 75.62 18.24C 75.81 18.0501 76.0001 17.4801 76.0001 17.1C 76.0001 15.96 75.2402 15.2001 74.1002 15.2001L 47.4999 15.2001C 45.9798 15.2001 45.03 16.9101 45.9798 18.24C 46.9299 19.5699 47.4999 21.09 47.4999 22.8C 47.4999 24.51 46.9299 26.0301 45.9798 27.36C 45.0297 28.6899 45.9798 30.3999 47.4999 30.3999L 74.1 30.3999C 75.24 30.3999 75.9999 29.64 75.9999 28.5C 75.9999 28.1199 75.81 27.7401 75.6198 27.36C 74.67 26.0301 74.1 24.51 74.1 22.8ZM 70.8699 26.6001L 50.5398 26.6001C 50.9199 25.4601 51.3 24.1302 51.3 22.8C 51.3 21.4699 51.1098 20.1399 50.5398 18.9999L 70.8699 18.9999C 70.4898 20.1399 70.11 21.4699 70.11 22.8C 70.11 24.1301 70.2999 25.4601 70.8699 26.6001Z"/>
<path d="M 49.4001 0L 30.4001 0C 29.2599 0 28.5 0.759926 28.5 1.89993L 28.5 20.8999C 28.5 22.0399 29.2599 22.7998 30.3999 22.7998L 30.5899 22.7998C 31.5399 22.7998 32.2999 22.2298 32.4898 21.2797C 33.2497 17.8597 36.2901 15.2001 39.9 15.2001C 43.5099 15.2001 46.5499 17.8597 47.3098 21.2797C 47.4997 22.2298 48.2598 22.7998 49.2097 22.7998L 49.3996 22.7998C 50.5396 22.7998 51.2996 22.0399 51.2996 20.8999L 51.2996 1.89993C 51.3 0.759926 50.5401 0 49.4001 0ZM 47.4999 14.25C 45.4101 12.54 42.75 11.4 39.9 11.4C 37.05 11.4 34.3899 12.54 32.3001 14.25L 32.3001 3.80007L 47.5001 3.80007L 47.4999 14.25Z"/>
</svg>