<svg width="102" height="88" viewBox="0 0 102 88" version="1.1" xmlns="http://www.w3.org/2000/svg" xmlns:xlink="http://www.w3.org/1999/xlink">
<g id="Canvas" fill="none">
<g id="Vector">
<path d="M 62.8707 24.9918C 62.8707 38.2422 52.1429 48.9837 38.9095 48.9837C 25.6761 48.9837 14.9483 38.2422 14.9483 24.9918C 14.9483 11.7415 25.6761 1 38.9095 1C 52.1429 1 62.8707 11.7415 62.8707 24.9918Z" fill="#D6F0FF"/>
<path d="M 90.569 58.0082C 90.569 71.2585 79.8412 82 66.6078 82C 53.3743 82 42.6466 71.2585 42.6466 58.0082C 42.6466 44.7578 53.3743 34.0163 66.6078 34.0163C 79.8412 34.0163 90.569 44.7578 90.569 58.0082Z" fill="#D6F0FF"/>
<path d="M 102 47.8832C 102 58.9454 93.0438 67.913 81.9957 67.913C 70.9476 67.913 61.9914 58.9454 61.9914 47.8832C 61.9914 36.8209 70.9476 27.8533 81.9957 27.8533C 93.0438 27.8533 102 36.8209 102 47.8832Z" fill="#D6F0FF"/>
<path d="M 40.0086 51.4049C 40.0086 62.4671 31.0524 71.4348 20.0043 71.4348C 8.95623 71.4348 0 62.4671 0 51.4049C 0 40.3427 8.95623 31.375 20.0043 31.375C 31.0524 31.375 40.0086 40.3427 40.0086 51.4049Z" fill="#D6F0FF"/>
<path d="M 81.7759 36.8777C 81.7759 47.9399 72.8196 56.9076 61.7716 56.9076C 50.7235 56.9076 41.7672 47.9399 41.7672 36.8777C 41.7672 25.8155 50.7235 16.8478 61.7716 16.8478C 72.8196 16.8478 81.7759 25.8155 81.7759 36.8777Z" fill="#D6F0FF"/>
<path d="M 61.5517 58.8886C 61.5517 69.9508 52.5955 78.9185 41.5474 78.9185C 30.4993 78.9185 21.5431 69.9508 21.5431 58.8886C 21.5431 47.8264 30.4993 38.8587 41.5474 38.8587C 52.5955 38.8587 61.5517 47.8264 61.5517 58.8886Z" fill="#D6F0FF"/>
<path d="M 46.8226 51.1114C 46.6754 51.017 46.3761 50.8393 46.3761 50.3944L 46.3761 10.3401C 46.3761 4.63844 41.7265 0 36.0111 0C 30.2958 0 25.6459 4.63844 25.6459 10.3401L 25.6459 50.4347C 25.6459 50.809 25.3449 51.0185 25.1965 51.1136C 19.485 54.7724 16 61.068 16 67.9097C 16 78.9173 24.977 87.8723 36.0111 87.8723C 47.0455 87.8723 56.0223 78.9171 56.0223 67.9097C 56.0223 61.0665 52.5361 54.7702 46.8226 51.1114ZM 36.0111 84.2313C 26.9896 84.2313 19.65 76.9094 19.65 67.9097C 19.65 61.8673 22.9756 56.3451 28.3294 53.4985L 28.554 53.3791C 28.554 53.3791 29.2959 53.0846 29.2959 51.9015C 29.2959 41.511 29.2959 10.3401 29.2959 10.3401C 29.2959 6.64611 32.3081 3.64104 36.0111 3.64104C 39.7139 3.64104 42.7261 6.64611 42.7261 10.3401C 42.7261 10.3401 42.7261 41.5224 42.7261 51.9164C 42.7261 53.0846 43.5133 53.4031 43.5133 53.4031L 43.6926 53.4985C 49.0464 56.3451 52.3723 61.8671 52.3723 67.9097C 52.3723 76.9094 45.0327 84.2313 36.0111 84.2313Z" fill="#0081C9"/>
<path d="M 39.2338 60.2327C 39.0545 60.165 38.6878 60.0533 38.6878 59.4465L 38.6878 47.0871C 38.6878 45.6125 37.4894 44.417 36.0111 44.417C 34.5329 44.417 33.3345 45.6125 33.3345 47.0871L 33.3345 59.4465C 33.3345 60.0332 32.9318 60.1776 32.7351 60.2531C 29.3175 61.569 26.8862 64.8804 26.8862 68.7484C 26.8862 73.7676 30.9795 77.851 36.0111 77.851C 41.0427 77.851 45.1361 73.7676 45.1361 68.7484C 45.1361 64.8605 42.6794 61.5347 39.2338 60.2327Z" fill="#0081C9"/>
<path d="M 63.7344 11.041L 78.0995 11.041C 78.9059 11.041 79.5595 10.3888 79.5595 9.58459C 79.5595 8.7804 78.9059 8.12817 78.0995 8.12817L 63.7344 8.12817C 62.928 8.12817 62.2744 8.7804 62.2744 9.58459C 62.2744 10.389 62.928 11.041 63.7344 11.041Z" fill="#0081C9"/>
<path d="M 63.7344 20.4267L 82.9662 20.4267C 83.7726 20.4267 84.4262 19.7745 84.4262 18.9703C 84.4262 18.1661 83.7726 17.5139 82.9662 17.5139L 63.7344 17.5139C 62.928 17.5139 62.2744 18.1661 62.2744 18.9703C 62.2744 19.7748 62.928 20.4267 63.7344 20.4267Z" fill="#0081C9"/>
<path d="M 63.7344 29.8125L 78.0995 29.8125C 78.9059 29.8125 79.5595 29.1603 79.5595 28.3561C 79.5595 27.5519 78.9059 26.8997 78.0995 26.8997L 63.7344 26.8997C 62.928 26.8997 62.2744 27.5519 62.2744 28.3561C 62.2744 29.1603 62.928 29.8125 63.7344 29.8125Z" fill="#0081C9"/>
<path d="M 82.9662 39.1985C 83.7726 39.1985 84.4262 38.5465 84.4262 37.7421C 84.4262 36.9379 83.7726 36.2856 82.9662 36.2856L 63.7344 36.2856C 62.928 36.2856 62.2744 36.9379 62.2744 37.7421C 62.2744 38.5465 62.928 39.1985 63.7344 39.1985L 82.9662 39.1985Z" fill="#0081C9"/>
<path d="M 63.7741 73.013L 72.2214 83.9165C 72.8122 84.6787 73.667 85.1158 74.5671 85.1158C 75.4669 85.1158 76.322 84.6784 76.9128 83.9162L 85.3601 73.0133C 86.0256 72.1542 86.1806 71.2 85.7847 70.3956C 85.3885 69.5912 84.5374 69.1295 83.4487 69.1295L 81.4568 69.1295C 81.193 69.1295 80.9701 68.9071 80.9701 68.644L 80.9701 56.6818C 80.9701 54.8078 79.442 53.2834 77.5635 53.2834L 72.0411 53.2834C 70.1625 53.2834 68.6344 54.8078 68.6344 56.6818L 68.6344 68.644C 68.6344 68.9071 68.4115 69.1295 68.1478 69.1295L 65.6855 69.1295C 64.5968 69.1295 63.7456 69.5909 63.3495 70.3956C 62.9536 71.2 63.1086 72.1542 63.7741 73.013ZM 67.0618 72.0423C 67.3331 72.0423 68.1478 72.0423 68.1478 72.0423C 70.0263 72.0423 71.5544 70.5179 71.5544 68.644L 71.5544 56.6818C 71.5544 56.4186 71.7773 56.1963 72.0411 56.1963L 77.5635 56.1963C 77.8272 56.1963 78.0501 56.4186 78.0501 56.6818L 78.0501 68.644C 78.0501 70.5179 79.5783 72.0423 81.4568 72.0423C 81.4568 72.0423 81.9639 72.0423 82.133 72.0423C 82.4107 72.0423 82.3055 72.1921 82.3055 72.1921L 74.98 81.6474C 74.98 81.6474 74.7761 81.9013 74.5671 81.9013C 74.3466 81.9013 74.1413 81.6314 74.1413 81.6314L 66.8415 72.2088C 66.8415 72.2088 66.7082 72.0423 67.0618 72.0423Z" fill="#0081C9"/>
</g>
</g>
</svg>

