<svg width="114" height="114" viewBox="0 0 114 114" version="1.1" xmlns="http://www.w3.org/2000/svg" xmlns:xlink="http://www.w3.org/1999/xlink">
<path d="M 101.284 95.8315L 99.4109 95.0805C 108.83 84.6027 114 71.1445 114 57C 114 45.4283 110.502 34.2942 104.128 24.9344C 104.05 24.7823 103.955 24.6454 103.843 24.5258C 101.051 20.5013 97.727 16.8101 93.9124 13.5653C 93.1551 12.9212 92.0194 13.0129 91.3752 13.7702C 90.7311 14.5274 90.8228 15.6636 91.5798 16.3076C 94.64 18.9106 97.3638 21.8203 99.7266 24.9693C 95.9165 26.4585 91.3432 27.7196 86.2377 28.716C 84.8282 24.5167 83.096 20.6015 81.0596 17.0691C 78.3149 12.3075 75.1578 8.47341 71.7171 5.65346C 77.0722 7.18445 82.1735 9.55663 86.8549 12.719C 87.6787 13.275 88.7973 13.0588 89.354 12.235C 89.9104 11.4114 89.6937 10.2925 88.8699 9.73587C 79.4429 3.36656 68.4223 0 57 0C 41.7745 0 27.4609 5.92889 16.6952 16.6952C 5.92889 27.4609 0 41.775 0 57C 0 71.1627 5.1772 84.6227 14.6116 95.1043L 12.7622 95.8286C 12.0811 96.0746 6.28959 98.3847 6.28959 105.749L 6.28959 112.198C 6.28959 113.193 7.09516 114 8.08955 114L 34.5843 114C 34.6711 114 34.756 113.992 34.8395 113.98C 34.9232 113.992 35.0078 114 35.0946 114L 42.4187 114C 43.4131 114 44.2186 113.194 44.2186 112.2C 44.2186 111.206 43.4128 110.4 42.4187 110.4L 36.8946 110.4L 36.8946 104.131C 36.8946 97.5174 42.0896 95.615 42.2993 95.5411C 42.3272 95.5318 42.3548 95.5218 42.3824 95.5108L 51.1479 92.0779C 51.1669 92.0984 51.1847 92.1198 51.2047 92.1394L 55.8631 96.6767C 56.1996 97.004 56.6504 97.1872 57.1191 97.1872C 57.1285 97.1872 57.138 97.1872 57.1474 97.187C 57.6263 97.1797 58.083 96.9813 58.415 96.6362L 62.8879 91.9951L 71.6417 95.5055C 71.6735 95.5184 71.6944 95.5264 71.7269 95.5371C 71.948 95.6148 77.1437 97.5179 77.1437 104.131L 77.1437 110.4L 48.0443 110.4C 47.0499 110.4 46.2444 111.206 46.2444 112.2C 46.2444 113.194 47.0502 114 48.0443 114L 105.949 114C 106.943 114 107.748 113.182 107.748 112.187L 107.748 105.749C 107.749 98.4129 102.001 96.0922 101.284 95.8315ZM 95.8375 93.6474L 94.0631 92.9358L 94.0631 91.9116C 96.0241 90.7616 97.5312 88.9196 98.2473 86.7224C 100.866 86.5155 102.934 84.323 102.934 81.6523C 102.934 80.0638 102.202 78.6442 101.059 77.7095L 101.059 74.5104C 101.059 68.3423 96.4304 63.2384 90.465 62.4809C 90.5329 61.2605 90.5799 60.031 90.6026 58.8L 110.367 58.8C 109.934 71.8291 104.816 84.136 95.8375 93.6474ZM 89.339 89.5953L 87.6974 89.5953C 84.5167 89.5953 81.9293 87.0078 81.9293 83.8276L 81.9293 79.065C 84.2741 78.8105 88.4273 77.9909 91.6271 75.3186C 92.3438 76.5479 93.4528 77.8774 95.1072 78.6538L 95.1072 83.8274C 95.1069 87.0078 92.5195 89.5953 89.339 89.5953ZM 90.4635 93.1253L 90.4635 94.1233L 88.4578 96.2042L 86.5732 94.3688L 86.5732 93.1251C 86.9421 93.1694 87.3169 93.195 87.6976 93.195L 89.3393 93.195C 89.72 93.1952 90.0943 93.1696 90.4635 93.1253ZM 80.1351 75.582C 80.1331 75.582 80.1311 75.582 80.1291 75.582C 80.0672 75.582 80.0057 75.5853 79.9454 75.5913C 79.926 75.5934 79.9071 75.5974 79.8877 75.6C 79.8472 75.6054 79.8067 75.6103 79.7671 75.6185C 79.7399 75.6239 79.7138 75.6321 79.6871 75.639C 79.6562 75.6468 79.625 75.6535 79.5949 75.6628C 79.5753 75.6688 79.5569 75.6771 79.5375 75.6838L 79.5375 74.5106C 79.5375 69.8067 83.3643 65.9802 88.0681 65.9802L 88.9289 65.9802C 93.6325 65.9802 97.4586 69.8067 97.4586 74.5106L 97.4586 75.6691C 97.4248 75.6581 97.3905 75.6497 97.3558 75.641C 97.3393 75.6363 97.3228 75.631 97.3061 75.6268C 94.7968 75.0561 93.9761 71.7071 93.9701 71.6817C 93.814 70.9919 93.2683 70.4576 92.5751 70.316C 91.882 70.1739 91.1706 70.4513 90.756 71.0245C 87.4966 75.5303 80.2304 75.582 80.1351 75.582ZM 98.7069 82.8653L 98.7069 80.4397C 99.0858 80.7102 99.3343 81.1526 99.3343 81.6527C 99.3343 82.1528 99.0858 82.5948 98.7069 82.8653ZM 101.839 27.9986C 107.053 36.0534 110.039 45.4303 110.366 55.1998L 90.6017 55.1998C 90.4557 47.0976 89.3235 39.283 87.3046 32.1663C 92.8388 31.067 97.773 29.6623 101.839 27.9986ZM 87.0014 55.2003L 68.5786 55.2003C 68.5766 55.2001 68.5748 55.2003 68.573 55.2003C 66.1173 52.4856 62.6653 50.6922 58.8 50.3938L 58.8 34.9147C 67.6329 34.8268 76.1569 34.0922 83.7513 32.8157C 85.7385 39.6985 86.8538 47.2986 87.0014 55.2003ZM 71.1231 73.9965C 71.1231 75.0552 70.4079 75.9478 69.4356 76.2224L 69.4356 71.7699C 70.4079 72.0449 71.1231 72.9377 71.1231 73.9965ZM 58.8 3.69988C 65.963 4.46493 72.7024 9.77973 77.9406 18.8668C 79.7788 22.0554 81.3573 25.5783 82.6585 29.3572C 75.4012 30.5455 67.2567 31.2295 58.7997 31.3144L 58.8 3.69988ZM 57.6584 53.9452C 63.7897 53.9452 68.7776 58.9335 68.7776 65.065L 68.7776 67.2647C 68.7656 67.2551 68.7529 67.2466 68.7407 67.2371C 68.7146 67.2166 68.6881 67.1965 68.6607 67.1776C 68.6396 67.1629 68.6178 67.1493 68.5959 67.1355C 68.569 67.1184 68.5423 67.1015 68.5142 67.0859C 68.4886 67.0714 68.4621 67.0587 68.4358 67.0456C 68.4107 67.0331 68.3857 67.0204 68.3599 67.0088C 68.3283 66.9948 68.2956 66.9832 68.2633 66.971C 68.2408 66.9625 68.2185 66.9538 68.1958 66.9463C 68.1595 66.9342 68.1221 66.9247 68.0849 66.9151C 68.0685 66.9104 68.0522 66.9049 68.0353 66.9009C 64.616 66.1233 63.5327 61.6651 63.5236 61.6264C 63.3675 60.9366 62.8218 60.4022 62.1287 60.2606C 61.4358 60.1181 60.7242 60.396 60.3096 60.9691C 56.0945 66.7964 46.7832 66.8561 46.6603 66.8561C 46.6578 66.8561 46.6556 66.8561 46.6534 66.8561C 46.5915 66.8561 46.53 66.8592 46.4697 66.8652C 46.4508 66.8675 46.4325 66.8712 46.4136 66.8739C 46.3728 66.8795 46.3314 66.8844 46.2913 66.8924C 46.2657 66.8977 46.2408 66.9058 46.2152 66.912C 46.1831 66.92 46.1504 66.9271 46.1192 66.9367C 46.0901 66.9458 46.062 66.9576 46.0335 66.9681C 46.0075 66.9777 45.9803 66.9861 45.9545 66.9968C 45.9215 67.0108 45.8901 67.0273 45.8587 67.0427C 45.8382 67.0527 45.8175 67.0614 45.7975 67.0723C 45.765 67.0897 45.7347 67.1097 45.7035 67.1289C 45.6857 67.1402 45.667 67.1502 45.6492 67.162C 45.6203 67.1816 45.5929 67.2034 45.5648 67.2248C 45.5468 67.2384 45.5281 67.2509 45.5105 67.2653C 45.494 67.2789 45.4787 67.2943 45.4624 67.3085L 45.4624 65.0648C 45.4624 58.9333 50.4503 53.9452 56.5816 53.9452L 57.6584 53.9452ZM 26.9986 55.2C 27.1463 47.2971 28.262 39.6954 30.2496 32.812C 37.8547 34.0902 46.3878 34.8263 55.2 34.915L 55.2 50.4123C 51.4267 50.7656 48.063 52.5473 45.6572 55.2121C 45.5918 55.2049 45.5252 55.2003 45.4577 55.2003L 26.9986 55.2ZM 44.8534 71.7514L 44.8534 76.2415C 43.8441 75.9919 43.0931 75.0817 43.0931 73.9965C 43.0929 72.9115 43.8441 72.0012 44.8534 71.7514ZM 55.2 3.69988L 55.2 31.3144C 46.7632 31.2289 38.6122 30.5422 31.3433 29.3517C 32.6443 25.575 34.222 22.0543 36.0594 18.8668C 41.2976 9.77973 48.037 4.46493 55.2 3.69988ZM 42.2631 5.66927C 38.8301 8.4881 35.6798 12.3162 32.9402 17.0688C 30.9045 20.6004 29.1729 24.5138 27.7637 28.712C 22.6646 27.7169 18.0986 26.4587 14.2956 24.9754C 21.1895 15.8053 30.9641 8.91827 42.2631 5.66927ZM 12.1771 28.007C 16.233 29.6645 21.1682 31.0639 26.6969 32.162C 24.6768 39.2797 23.5446 47.096 23.3981 55.2L 3.63375 55.2C 3.96662 45.2014 7.06043 35.8906 12.1771 28.007ZM 23.7759 93.1255C 24.1448 93.1698 24.5196 93.1952 24.9003 93.1952L 26.5422 93.1952C 26.9225 93.1952 27.2972 93.1698 27.6659 93.1253L 27.6659 94.123L 25.6607 96.204L 23.7759 94.3686L 23.7759 93.1255ZM 26.5422 89.5953L 24.9003 89.5953C 21.7197 89.5953 19.1322 87.0078 19.1322 83.8274L 19.1322 79.067C 21.4765 78.8134 25.6282 77.9925 28.83 75.3186C 29.5469 76.5481 30.6558 77.8778 32.3099 78.6542L 32.3099 83.8276C 32.3096 87.0078 29.7224 89.5953 26.5422 89.5953ZM 31.1737 71.6815C 31.0176 70.9917 30.4718 70.4573 29.7787 70.3157C 29.0856 70.1737 28.374 70.4511 27.9598 71.0242C 24.6979 75.5328 17.426 75.5822 17.3382 75.5822C 17.336 75.5822 17.3342 75.5822 17.3322 75.5822C 17.2703 75.5822 17.2089 75.5853 17.1485 75.5913C 17.1296 75.5936 17.1114 75.5974 17.0924 75.6C 17.0517 75.6054 17.0103 75.6105 16.9702 75.6185C 16.9446 75.6239 16.9196 75.6319 16.894 75.6381C 16.862 75.6461 16.8295 75.6533 16.7981 75.6628C 16.7787 75.6688 16.7605 75.6771 16.7413 75.6838L 16.7413 74.5106C 16.7413 69.8067 20.5679 65.9799 25.2717 65.9799L 26.1327 65.9799C 30.8363 65.9799 34.6625 69.8067 34.6625 74.5106L 34.6625 75.6693C 34.6279 75.6579 34.5917 75.6495 34.5565 75.6403C 34.5407 75.6363 34.5253 75.6308 34.5093 75.627C 32.0004 75.0563 31.1797 71.7067 31.1737 71.6815ZM 3.63353 58.8L 23.3976 58.8C 23.4201 60.0397 23.468 61.2779 23.5363 62.5061C 17.6669 63.3502 13.1407 68.4107 13.1407 74.5104L 13.1407 77.6954C 11.9863 78.6297 11.2459 80.0556 11.2459 81.6523C 11.2459 84.3429 13.3462 86.5469 15.993 86.7255C 16.709 88.9213 18.2155 90.7618 20.1758 91.9116L 20.1758 92.9254L 18.2095 93.6953C 9.2006 84.1765 4.06637 71.8572 3.63353 58.8ZM 15.5318 80.3996L 15.5318 82.9049C 15.1199 82.6395 14.8458 82.1777 14.8458 81.6527C 14.8458 81.1273 15.1199 80.6655 15.5318 80.3996ZM 33.2942 104.131L 33.2942 110.4L 9.88972 110.4L 9.88972 105.749C 9.88972 100.73 13.8129 99.2757 13.9654 99.2216C 13.9933 99.2123 14.0211 99.2023 14.0485 99.1914L 20.8375 96.5326L 24.445 100.046C 24.7812 100.374 25.2319 100.557 25.7008 100.557C 25.7101 100.557 25.7197 100.557 25.7293 100.556C 26.2082 100.549 26.6646 100.351 26.9966 100.006L 30.4042 96.4694L 34.6161 98.1582C 33.8175 99.7928 33.2942 101.772 33.2942 104.131ZM 50.661 88.4025L 41.1072 92.1438C 39.8906 92.5624 38.2069 93.5281 36.7133 95.1205L 31.2656 92.9358L 31.2656 91.9121C 33.227 90.7618 34.7339 88.9198 35.45 86.7224C 38.0689 86.5155 40.1376 84.323 40.1376 81.6523C 40.1376 80.0638 39.4053 78.6442 38.2619 77.7095L 38.2619 74.5104C 38.2619 68.1604 33.3568 62.938 27.1373 62.4248C 27.0688 61.224 27.0213 60.0128 26.9984 58.7997L 43.2657 58.7997C 42.367 60.7019 41.862 62.8249 41.862 65.0646L 41.862 69.2648C 40.4244 70.3449 39.4925 72.0636 39.4925 73.9965C 39.4925 77.2272 42.0969 79.8599 45.3166 79.9093C 46.1613 82.7624 48.1071 85.1462 50.6605 86.5665L 50.661 88.4025ZM 35.9098 82.8655L 35.9098 80.439C 36.289 80.7098 36.5377 81.1522 36.5377 81.6525C 36.5377 82.1528 36.289 82.595 35.9098 82.8655ZM 60.0284 89.6588C 60.0284 89.6612 60.0284 89.6637 60.0284 89.6655L 60.0284 89.7746L 57.079 92.835L 54.2609 90.0901L 54.2609 87.8252C 54.8654 87.9261 55.4853 87.9811 56.1183 87.9811L 58.1716 87.9811C 58.8042 87.9811 59.4238 87.9261 60.0284 87.8256L 60.0284 89.6588ZM 58.1716 84.3814L 56.1183 84.3814C 51.8918 84.3814 48.4533 80.9431 48.4533 76.7167L 48.4533 70.3616C 51.3261 70.0971 57.0065 69.0985 61.1557 65.3737C 62.0314 67.0309 63.4993 68.9549 65.8359 69.9528L 65.8359 76.7164C 65.8357 80.9431 62.3976 84.3814 58.1716 84.3814ZM 77.3361 95.1328C 75.8427 93.5363 74.157 92.5673 72.9377 92.1465L 63.628 88.4128L 63.628 86.5665C 66.1821 85.146 68.1275 82.7616 68.972 79.9075C 72.1575 79.8194 74.7225 77.2025 74.7225 73.9967C 74.7225 72.0749 73.8008 70.3649 72.3771 69.2837L 72.3771 65.0648C 72.3771 62.8254 71.8723 60.7021 70.9735 58.8L 87.0009 58.8C 86.9775 60.0179 86.9299 61.234 86.8604 62.4406C 80.736 63.0482 75.9369 68.2292 75.9369 74.5104L 75.9369 77.6959C 74.7827 78.6299 74.0426 80.0558 74.0426 81.6525C 74.0426 84.3433 76.1429 86.5474 78.7896 86.7257C 79.5056 88.9216 81.0124 90.762 82.9726 91.9118L 82.9726 92.9256L 77.3361 95.1328ZM 78.3294 80.3996L 78.3294 82.9049C 77.9172 82.6395 77.6433 82.1777 77.6433 81.6527C 77.6433 81.1273 77.9174 80.6652 78.3294 80.3996ZM 104.149 110.4L 80.7443 110.4L 80.7443 104.131C 80.7443 101.782 80.2257 99.8088 79.4322 98.1783L 83.635 96.5324L 87.2421 100.046C 87.5783 100.373 88.0289 100.557 88.4981 100.557C 88.5074 100.557 88.517 100.557 88.5263 100.556C 89.0053 100.549 89.4617 100.351 89.7939 100.006L 93.2017 96.4694L 99.9762 99.1858C 100.008 99.1987 100.025 99.2054 100.058 99.2165C 100.225 99.2757 104.149 100.73 104.149 105.749L 104.149 110.4Z"/>
</svg>