<svg width="68" height="82" viewBox="0 0 68 82" version="1.1" xmlns="http://www.w3.org/2000/svg" xmlns:xlink="http://www.w3.org/1999/xlink">
<path fill-rule="evenodd" clip-rule="evenodd" d="M 6 12.5C 5.17157 12.5 4.5 11.8284 4.5 11C 4.5 7.41015 7.41015 4.5 11 4.5C 11.8284 4.5 12.5 5.17157 12.5 6C 12.5 6.82843 11.8284 7.5 11 7.5C 9.067 7.5 7.5 9.067 7.5 11C 7.5 11.8284 6.82843 12.5 6 12.5ZM 46 17.5C 45.1716 17.5 44.5 16.8284 44.5 16C 44.5 12.4101 47.4101 9.5 51 9.5C 51.8284 9.5 52.5 10.1716 52.5 11C 52.5 11.8284 51.8284 12.5 51 12.5C 49.067 12.5 47.5 14.067 47.5 16C 47.5 16.8284 46.8284 17.5 46 17.5ZM 21 44.5C 20.1716 44.5 19.5 43.8284 19.5 43C 19.5 39.4101 22.4101 36.5 26 36.5C 26.8284 36.5 27.5 37.1716 27.5 38C 27.5 38.8284 26.8284 39.5 26 39.5C 24.067 39.5 22.5 41.067 22.5 43C 22.5 43.8284 21.8284 44.5 21 44.5ZM 52 57.5C 51.1716 57.5 50.5 56.8284 50.5 56C 50.5 52.4101 53.4101 49.5 57 49.5C 57.8284 49.5 58.5 50.1716 58.5 51C 58.5 51.8284 57.8284 52.5 57 52.5C 55.067 52.5 53.5 54.067 53.5 56C 53.5 56.8284 52.8284 57.5 52 57.5ZM 7 72.5C 6.17157 72.5 5.5 71.8284 5.5 71C 5.5 67.4101 8.41015 64.5 12 64.5C 12.8284 64.5 13.5 65.1716 13.5 66C 13.5 66.8284 12.8284 67.5 12 67.5C 10.067 67.5 8.5 69.067 8.5 71C 8.5 71.8284 7.82843 72.5 7 72.5ZM 12 79C 16.4183 79 20 75.4183 20 71C 20 66.5817 16.4183 63 12 63C 7.58172 63 4 66.5817 4 71C 4 75.4183 7.58172 79 12 79ZM 57 64C 61.4183 64 65 60.4183 65 56C 65 51.5817 61.4183 48 57 48C 52.5817 48 49 51.5817 49 56C 49 60.4183 52.5817 64 57 64ZM 26 51C 30.4183 51 34 47.4183 34 43C 34 38.5817 30.4183 35 26 35C 21.5817 35 18 38.5817 18 43C 18 47.4183 21.5817 51 26 51ZM 51 24C 55.4183 24 59 20.4183 59 16C 59 11.5817 55.4183 8 51 8C 46.5817 8 43 11.5817 43 16C 43 20.4183 46.5817 24 51 24ZM 11 19C 15.4183 19 19 15.4183 19 11C 19 6.58172 15.4183 3 11 3C 6.58172 3 3 6.58172 3 11C 3 15.4183 6.58172 19 11 19ZM 11 22C 17.0751 22 22 17.0751 22 11C 22 4.92487 17.0751 0 11 0C 4.92487 0 0 4.92487 0 11C 0 17.0751 4.92487 22 11 22ZM 62 16C 62 22.0751 57.0751 27 51 27C 44.9249 27 40 22.0751 40 16C 40 9.92487 44.9249 5 51 5C 57.0751 5 62 9.92487 62 16ZM 26 54C 32.0751 54 37 49.0751 37 43C 37 36.9249 32.0751 32 26 32C 19.9249 32 15 36.9249 15 43C 15 49.0751 19.9249 54 26 54ZM 68 56C 68 62.0751 63.0751 67 57 67C 50.9249 67 46 62.0751 46 56C 46 49.9249 50.9249 45 57 45C 63.0751 45 68 49.9249 68 56ZM 23 71C 23 77.0751 18.0751 82 12 82C 5.92487 82 1 77.0751 1 71C 1 64.9249 5.92487 60 12 60C 18.0751 60 23 64.9249 23 71Z" />
</svg>