<svg width="86" height="81" viewBox="0 0 86 81" version="1.1" xmlns="http://www.w3.org/2000/svg" xmlns:xlink="http://www.w3.org/1999/xlink">
<path d="M 73.4055 12.6485C 65.2841 4.49191 54.4857 0 43 0C 31.5143 0 20.7159 4.49191 12.5945 12.6485C 4.47301 20.805 0 31.6497 0 43.185C 0 55.5526 5.29538 67.3482 14.5285 75.5471C 15.0567 76.0164 15.864 75.9664 16.3313 75.4357C 16.7986 74.905 16.749 74.0943 16.2204 73.6252C 7.53558 65.9129 2.55464 54.8179 2.55464 43.185C 2.55464 32.3353 6.76158 22.1347 14.4008 14.4626C 22.04 6.7905 32.1968 2.56546 43 2.56546C 53.8032 2.56546 63.9601 6.7905 71.5994 14.4626C 79.2386 22.1347 83.4455 32.3351 83.4455 43.185C 83.4455 54.8181 78.4646 65.9129 69.7796 73.625C 69.251 74.0943 69.2014 74.9048 69.6687 75.4356C 69.9212 75.7223 70.2729 75.8686 70.6262 75.8686C 70.9268 75.8686 71.2287 75.7625 71.4717 75.5469C 80.7046 67.3482 86 55.5526 86 43.185C 86 31.6497 81.5272 20.805 73.4055 12.6485Z" />
<path d="M 60.0763 69.333L 31.4447 69.333C 30.7394 69.333 30.1675 69.9074 30.1675 70.6157C 30.1675 71.3241 30.7394 71.8985 31.4447 71.8985L 60.0762 71.8985C 61.0828 71.8985 61.9018 72.721 61.9018 73.732L 61.9018 76.6012C 61.9018 77.6122 61.0828 78.4346 60.0762 78.4346L 25.9234 78.4346C 24.9168 78.4346 24.0979 77.612 24.0979 76.6012L 24.0979 73.732C 24.0979 72.721 24.9169 71.8985 25.9234 71.8985L 27.1874 71.8985C 27.8927 71.8985 28.4646 71.3241 28.4646 70.6157C 28.4646 69.9074 27.8927 69.333 27.1874 69.333L 25.9234 69.333C 23.5082 69.333 21.5435 71.3064 21.5435 73.732L 21.5435 76.6012C 21.5435 79.0269 23.5084 80.9999 25.9234 80.9999L 60.0763 80.9999C 62.4916 80.9999 64.4565 79.0265 64.4565 76.6012L 64.4565 73.732C 64.4563 71.3064 62.4916 69.333 60.0763 69.333Z" />
<path d="M 64.668 14.1003C 58.3762 9.36518 50.8834 6.8623 42.9993 6.8623C 28.4506 6.8623 15.3767 15.5541 9.6923 29.0062C 9.43481 29.6156 9.68122 30.3217 10.2612 30.6361C 10.4535 30.7404 10.6617 30.7902 10.8671 30.7902C 11.2815 30.7902 11.6856 30.5876 11.9303 30.2196C 17.4447 21.9263 26.6558 16.975 36.57 16.975C 43.7891 16.975 50.7424 19.6138 56.1488 24.4054C 56.6777 24.874 57.4853 24.8235 57.9516 24.2923C 58.4184 23.7611 58.368 22.9506 57.8392 22.4818C 51.9657 17.2763 44.4119 14.4096 36.5702 14.4096C 30.097 14.4096 23.8993 16.353 18.6842 19.8593C 24.9091 13.311 33.625 9.42793 42.9997 9.42793C 50.3268 9.42793 57.2901 11.7535 63.1363 16.1535C 63.7008 16.5782 64.5012 16.463 64.9245 15.8962C 65.3471 15.3293 65.2325 14.5251 64.668 14.1003Z" />
<path d="M 71.298 20.5634C 70.8583 20.0094 70.055 19.9182 69.5031 20.3597C 68.9515 20.8013 68.8609 21.6081 69.3005 22.1623C 73.8182 27.8553 76.3245 34.6561 76.589 41.902L 68.3757 41.902C 67.8379 38.2767 66.6972 34.8018 64.9782 31.5574C 64.6469 30.932 63.8738 30.6945 63.2506 31.0275C 62.6278 31.3604 62.3916 32.137 62.7229 32.7625C 64.4694 36.0591 65.5671 39.6142 65.9858 43.329C 66.0589 43.9776 66.6051 44.4675 67.2548 44.4675L 77.8891 44.4675C 78.5947 44.4675 79.1665 43.8931 79.1665 43.1848C 79.1667 34.8727 76.4456 27.0503 71.298 20.5634Z" />
<path d="M 69.1844 14.7684C 68.6313 14.4035 67.8924 14.5231 67.4817 15.0442L 45.3183 43.161C 44.8804 43.7165 44.9738 44.523 45.5269 44.9629C 46.08 45.4029 46.8832 45.3088 47.3211 44.7534L 60.5434 27.9796L 45.5991 55.9311C 45.4861 56.1172 45.2924 56.42 45.198 56.5389C 44.7307 57.1286 44.0627 57.5001 43.3169 57.5851C 42.5713 57.6706 41.8373 57.4584 41.2501 56.9889C 40.6628 56.5195 40.293 55.8486 40.2083 55.0996C 40.1237 54.3508 40.3345 53.6136 40.8043 53.0212L 44.7989 47.9535C 45.2366 47.398 45.1432 46.5912 44.5901 46.1514C 44.0372 45.7118 43.2338 45.8056 42.7959 46.3609L 38.8036 51.4258C 37.911 52.5515 37.5087 53.9589 37.6701 55.3887C 37.8317 56.8186 38.538 58.0996 39.6591 58.9957C 40.618 59.7624 41.782 60.1691 42.9897 60.1691C 43.1938 60.1691 43.3992 60.1575 43.605 60.134C 45.0287 59.9717 46.3042 59.2622 47.1965 58.1367C 47.4316 57.84 47.741 57.3312 47.8008 57.2322C 47.8121 57.2133 47.8232 57.1942 47.8334 57.1749L 69.6084 16.4472C 69.9213 15.8617 69.7374 15.1331 69.1844 14.7684Z" />
<path d="M 44.2315 53.8074C 43.6059 52.8515 42.0702 53.1964 41.9069 54.3302C 41.8293 54.8694 42.1072 55.4223 42.5966 55.6637C 43.0705 55.8975 43.6473 55.8208 44.0368 55.4605C 44.491 55.0406 44.5785 54.3221 44.2315 53.8074Z" />
</svg>