<svg width="34" height="40" viewBox="0 0 34 40" version="1.1" xmlns="http://www.w3.org/2000/svg" xmlns:xlink="http://www.w3.org/1999/xlink">
<path d="M 27.1379 31.5287C 26.8772 31.268 26.4559 31.268 26.1953 31.5287L 24.6666 33.0574L 24.6666 25.3334C 24.6666 24.9654 24.3679 24.6667 23.9999 24.6667C 23.632 24.6667 23.3333 24.9654 23.3333 25.3334L 23.3333 33.0574L 21.8046 31.5287C 21.5439 31.268 21.1226 31.268 20.862 31.5287C 20.6013 31.7893 20.6013 32.2107 20.862 32.4714L 23.5286 35.138C 23.6586 35.268 23.8293 35.3333 23.9999 35.3333C 24.1706 35.3333 24.3413 35.268 24.4713 35.138L 27.1379 32.4714C 27.3986 32.2107 27.3986 31.7894 27.1379 31.5287Z"/>
<path d="M 24 20C 18.486 20 14 24.486 14 30C 14 35.514 18.486 40 24 40C 29.514 40 34 35.514 34 30C 34 24.486 29.514 20 24 20ZM 24 38.6666C 19.2213 38.6666 15.3334 34.7787 15.3334 30C 15.3334 25.2213 19.2213 21.3334 24 21.3334C 28.7787 21.3334 32.6666 25.2213 32.6666 30C 32.6666 34.7787 28.7787 38.6666 24 38.6666Z"/>
<path d="M 14.6666 36.6665L 1.33328 36.6665L 1.33328 31.9999C 1.33328 31.6319 1.03461 31.3333 0.66664 31.3333C 0.298672 31.3333 0 31.6319 0 31.9999L 0 37.3333C 0 37.7012 0.298672 37.9999 0.66664 37.9999L 14.6666 37.9999C 15.0346 37.9999 15.3333 37.7012 15.3333 37.3333C 15.3333 36.9653 15.0346 36.6665 14.6666 36.6665Z"/>
<path d="M 0.66664 28.6667C 0.298672 28.6667 0 28.9654 0 29.3334C 0 29.7014 0.298672 30.0001 0.66664 30.0001L 0.673281 30.0001C 1.04125 30.0001 1.33664 29.7014 1.33664 29.3335C 1.33664 28.9655 1.03469 28.6667 0.66664 28.6667Z"/>
<path d="M 27.8047 10.862L 17.138 0.195312C 17.0133 0.07 16.8433 0 16.6666 0L 0.66664 0C 0.298672 0 0 0.298672 0 0.666641L 0 26.6666C 0 27.0346 0.298672 27.3333 0.66664 27.3333C 1.03461 27.3333 1.33328 27.0346 1.33328 26.6666L 1.33328 1.33336L 16 1.33336L 16 11.3334C 16 11.7013 16.2987 12 16.6666 12L 26.6666 12L 26.6666 18C 26.6666 18.368 26.9653 18.6666 27.3333 18.6666C 27.7012 18.6666 27.9999 18.368 27.9999 18L 27.9999 11.3334C 28 11.1566 27.93 10.9866 27.8047 10.862ZM 17.3334 10.6666L 17.3334 2.27602L 25.7241 10.6667L 17.3334 10.6666Z"/>
</svg>