<svg width="93" height="114" viewBox="0 0 93 114" version="1.1" xmlns="http://www.w3.org/2000/svg" xmlns:xlink="http://www.w3.org/1999/xlink">
<path d="M 11.0714 45.8672C 9.84912 45.8672 8.85712 46.8647 8.85712 48.0938C 8.85712 49.3228 9.84912 50.3203 11.0714 50.3203C 12.2937 50.3203 13.2857 49.3228 13.2857 48.0938C 13.2857 46.8647 12.2937 45.8672 11.0714 45.8672Z" transform="translate(0 -0.00012207)"/>
<path d="M 90.7857 19.1484C 66.6562 19.1484 53.6891 6.18316 49.4279 1.92264C 48.5606 1.05517 48.1251 0.619875 47.6663 0.333984C 46.9515 -0.111328 46.0478 -0.111328 45.3333 0.333984C 45.0178 0.53059 44.7636 0.780188 44.1495 1.38359C 42.5719 2.93327 38.8775 6.56279 33.1651 10.1554C 23.6727 16.1228 13.2591 19.1484 2.21429 19.1484C 0.991336 19.1484 0 20.1453 0 21.375L 0 50.5853C 0 64.6082 4.39934 77.9664 12.7228 89.2161C 21.7492 101.413 33.5188 110.181 45.8636 113.906C 46.0711 113.969 46.2857 114 46.5 114C 46.7143 114 46.9289 113.969 47.1364 113.906C 59.4812 110.181 71.2508 101.413 80.2774 89.2159C 88.6007 77.9664 93 64.6082 93 50.5853L 93 21.375C 93 20.1453 92.0087 19.1484 90.7857 19.1484ZM 88.5714 50.5853C 88.5714 63.6432 84.4748 76.0825 76.7246 86.5576C 68.4197 97.779 57.7087 105.884 46.5 109.444C 35.2913 105.884 24.5803 97.779 16.2757 86.5578C 8.52522 76.0825 4.42857 63.6432 4.42857 50.5853L 4.42857 23.5637C 15.4945 23.1836 25.9415 19.9482 35.5134 13.9312C 40.868 10.5635 44.5494 7.18289 46.5109 5.28541C 51.1547 9.92334 64.3998 22.8174 88.5714 23.5673L 88.5714 50.5853Z" transform="translate(0 -0.00012207)"/>
<path d="M 82.1723 27.585C 69.9847 26.2284 58.4221 21.2692 47.8053 12.845C 47.0104 12.2142 45.8917 12.206 45.0879 12.8247C 34.5721 20.9176 22.3979 26.1438 10.8079 27.5405C 9.69478 27.6748 8.85712 28.6242 8.85712 29.7513L 8.85712 39.1874C 8.85712 40.4172 9.84845 41.414 11.0714 41.414C 12.2944 41.414 13.2857 40.4172 13.2857 39.1874L 13.2857 31.6951C 21.7099 30.4054 33.672 26.8169 46.4134 17.3918C 56.7466 25.265 67.9332 30.0917 79.7143 31.7621L 79.7143 50.5854C 79.7143 61.7131 76.2225 72.3118 69.616 81.237C 63.2889 89.7939 55.3097 96.049 46.5 99.3688C 37.6907 96.0492 29.7124 89.7956 23.3855 81.2405C 18.055 74.0387 14.6867 65.5629 13.6444 56.729C 13.5005 55.5079 12.3998 54.6333 11.1848 54.7803C 9.97046 54.925 9.10268 56.0325 9.24683 57.2535C 10.3801 66.8598 14.0408 76.0736 19.8324 83.8986C 26.8615 93.4031 35.8271 100.298 45.7604 103.837C 45.9995 103.922 46.2498 103.965 46.5 103.965C 46.7502 103.965 47.0004 103.922 47.2395 103.837C 57.1735 100.297 66.14 93.4011 73.1693 83.8948C 80.3482 74.1961 84.1428 62.6779 84.1428 50.5852L 84.1428 29.798C 84.1428 28.6632 83.2941 27.71 82.1723 27.585Z" transform="translate(0 -0.00012207)"/>
<path d="M 68.4814 48.8083C 68.2208 48.0023 67.5279 47.4147 66.6938 47.2929L 54.0511 45.4462L 48.3994 33.9273C 48.0265 33.1672 47.2566 32.686 46.4138 32.6858C 45.5711 32.6858 44.8012 33.167 44.4283 33.9269L 38.7746 45.4462L 26.1317 47.2929C 25.2975 47.4147 24.6047 48.0023 24.3441 48.8083C 24.0837 49.6143 24.3009 50.4992 24.9045 51.0908L 34.0528 60.0574L 31.8937 72.7194C 31.7511 73.5546 32.0927 74.3989 32.7747 74.897C 33.1605 75.1788 33.6173 75.3222 34.0763 75.3222C 34.4288 75.3222 34.7826 75.2379 35.1066 75.0664L 46.4138 69.0874L 57.7189 75.0662C 58.4651 75.4605 59.3692 75.3953 60.051 74.897C 60.733 74.3989 61.0746 73.5546 60.932 72.7192L 58.7729 60.0572L 67.9212 51.0906C 68.5246 50.4994 68.7418 49.6146 68.4814 48.8083ZM 54.8478 57.6856C 54.3259 58.1971 54.0877 58.9341 54.211 59.6564L 55.8084 69.0249L 47.4442 64.6016C 46.7989 64.2605 46.0281 64.2605 45.3829 64.6016L 37.0162 69.0255L 38.6138 59.6566C 38.7371 58.9343 38.4989 58.1973 37.977 57.6859L 31.2081 51.0516L 40.5628 49.6852C 41.284 49.5798 41.9076 49.1243 42.2302 48.4672L 46.4132 39.9446L 50.5946 48.467C 50.917 49.1243 51.5406 49.5801 52.262 49.6854L 61.6167 51.0518L 54.8478 57.6856Z" transform="translate(0 -0.00012207)"/>
</svg>