<svg width="102" height="88" viewBox="0 0 102 88" version="1.1" xmlns="http://www.w3.org/2000/svg" xmlns:xlink="http://www.w3.org/1999/xlink">
<path d="M 62.8707 24.9918C 62.8707 38.2422 52.1429 48.9837 38.9095 48.9837C 25.6761 48.9837 14.9483 38.2422 14.9483 24.9918C 14.9483 11.7415 25.6761 1 38.9095 1C 52.1429 1 62.8707 11.7415 62.8707 24.9918Z" fill="#FFF0D9"/>
<path d="M 90.569 58.0082C 90.569 71.2585 79.8412 82 66.6078 82C 53.3743 82 42.6466 71.2585 42.6466 58.0082C 42.6466 44.7578 53.3743 34.0163 66.6078 34.0163C 79.8412 34.0163 90.569 44.7578 90.569 58.0082Z" fill="#FFF0D9"/>
<path d="M 102 47.8832C 102 58.9454 93.0438 67.913 81.9957 67.913C 70.9476 67.913 61.9914 58.9454 61.9914 47.8832C 61.9914 36.8209 70.9476 27.8533 81.9957 27.8533C 93.0438 27.8533 102 36.8209 102 47.8832Z" fill="#FFF0D9"/>
<path d="M 40.0086 51.4049C 40.0086 62.4671 31.0524 71.4348 20.0043 71.4348C 8.95623 71.4348 0 62.4671 0 51.4049C 0 40.3427 8.95623 31.375 20.0043 31.375C 31.0524 31.375 40.0086 40.3427 40.0086 51.4049Z" fill="#FFF0D9"/>
<path d="M 81.7759 36.8777C 81.7759 47.9399 72.8196 56.9076 61.7716 56.9076C 50.7235 56.9076 41.7672 47.9399 41.7672 36.8777C 41.7672 25.8155 50.7235 16.8478 61.7716 16.8478C 72.8196 16.8478 81.7759 25.8155 81.7759 36.8777Z" fill="#FFF0D9"/>
<path d="M 61.5517 58.8886C 61.5517 69.9508 52.5955 78.9185 41.5474 78.9185C 30.4993 78.9185 21.5431 69.9508 21.5431 58.8886C 21.5431 47.8264 30.4993 38.8587 41.5474 38.8587C 52.5955 38.8587 61.5517 47.8264 61.5517 58.8886Z" fill="#FFF0D9"/>
<path d="M 46.8227 51.1114C 46.6755 51.017 46.3762 50.8393 46.3762 50.3944L 46.3762 10.3401C 46.3762 4.63844 41.7264 0 36.0112 0C 30.2958 0 25.646 4.63844 25.646 10.3401L 25.646 50.4347C 25.646 50.809 25.345 51.0185 25.1965 51.1136C 19.485 54.7724 16 61.068 16 67.9097C 16 78.9173 24.977 87.8723 36.0112 87.8723C 47.0456 87.8723 56.0224 78.9171 56.0224 67.9097C 56.0224 61.0665 52.5362 54.7702 46.8227 51.1114ZM 36.0112 84.2313C 26.9896 84.2313 19.65 76.9094 19.65 67.9097C 19.65 61.8673 22.9756 56.3451 28.3294 53.4985L 28.554 53.3791C 28.554 53.3791 29.296 53.0846 29.296 51.9015C 29.296 41.511 29.296 10.3401 29.296 10.3401C 29.296 6.64611 32.3082 3.64104 36.0112 3.64104C 39.714 3.64104 42.7262 6.64611 42.7262 10.3401C 42.7262 10.3401 42.7262 41.5224 42.7262 51.9164C 42.7262 53.0846 43.5134 53.4031 43.5134 53.4031L 43.6927 53.4985C 49.0466 56.3451 52.3724 61.8671 52.3724 67.9097C 52.3724 76.9094 45.0328 84.2313 36.0112 84.2313Z" fill="#FF9900"/>
<path d="M 39.2339 60.233C 39.0546 60.1653 38.6879 60.0536 38.6879 59.4468L 38.6879 18.3234C 38.6879 16.8488 37.4895 15.6533 36.0112 15.6533C 34.533 15.6533 33.3346 16.8488 33.3346 18.3234L 33.3346 59.4465C 33.3346 60.0332 32.9318 60.1776 32.7352 60.2531C 29.3176 61.569 26.8862 64.8804 26.8862 68.7484C 26.8862 73.7677 30.9796 77.851 36.0112 77.851C 41.0429 77.851 45.1362 73.7677 45.1362 68.7484C 45.1362 64.8607 42.6795 61.535 39.2339 60.233Z" fill="#FF9900"/>
<path d="M 63.7346 11.0412L 78.0998 11.0412C 78.9062 11.0412 79.5598 10.389 79.5598 9.58483C 79.5598 8.78065 78.9062 8.12842 78.0998 8.12842L 63.7346 8.12842C 62.9285 8.12842 62.2746 8.78065 62.2746 9.58483C 62.2746 10.3893 62.9282 11.0412 63.7346 11.0412Z" fill="#FF9900"/>
<path d="M 63.7346 20.4267L 82.9664 20.4267C 83.7728 20.4267 84.4264 19.7745 84.4264 18.9703C 84.4264 18.1661 83.7728 17.5139 82.9664 17.5139L 63.7346 17.5139C 62.9285 17.5139 62.2746 18.1661 62.2746 18.9703C 62.2746 19.7748 62.9282 20.4267 63.7346 20.4267Z" fill="#FF9900"/>
<path d="M 63.7346 29.8122L 78.0998 29.8122C 78.9062 29.8122 79.5598 29.16 79.5598 28.3558C 79.5598 27.5516 78.9062 26.8994 78.0998 26.8994L 63.7346 26.8994C 62.9285 26.8994 62.2746 27.5516 62.2746 28.3558C 62.2746 29.16 62.9282 29.8122 63.7346 29.8122Z" fill="#FF9900"/>
<path d="M 82.9664 39.1985C 83.7728 39.1985 84.4264 38.5465 84.4264 37.7421C 84.4264 36.9379 83.7728 36.2856 82.9664 36.2856L 63.7346 36.2856C 62.9285 36.2856 62.2746 36.9379 62.2746 37.7421C 62.2746 38.5465 62.9285 39.1985 63.7346 39.1985L 82.9664 39.1985Z" fill="#FF9900"/>
<path d="M 85.3601 65.3863L 76.9128 54.4828C 76.322 53.7206 75.4671 53.2834 74.567 53.2834C 73.6672 53.2834 72.8121 53.7209 72.2213 54.483L 63.774 65.386C 63.1085 66.2451 62.9535 67.1993 63.3494 68.0037C 63.7455 68.8081 64.5967 69.2698 65.6854 69.2698L 67.6773 69.2698C 67.9411 69.2698 68.164 69.4921 68.164 69.7553L 68.164 81.7175C 68.164 83.5915 69.6921 85.1158 71.5706 85.1158L 77.0931 85.1158C 78.9716 85.1158 80.4997 83.5915 80.4997 81.7175L 80.4997 69.7553C 80.4997 69.4921 80.7226 69.2698 80.9864 69.2698L 83.4487 69.2698C 84.5374 69.2698 85.3885 68.8084 85.7847 68.0037C 86.1806 67.1993 86.0256 66.2451 85.3601 65.3863ZM 82.0724 66.357C 81.8011 66.357 80.9864 66.357 80.9864 66.357C 79.1079 66.357 77.5797 67.8813 77.5797 69.7553L 77.5797 81.7175C 77.5797 81.9807 77.3568 82.203 77.0931 82.203L 71.5706 82.203C 71.3069 82.203 71.084 81.9807 71.084 81.7175L 71.084 69.7553C 71.084 67.8813 69.5558 66.357 67.6773 66.357C 67.6773 66.357 67.1702 66.357 67.0011 66.357C 66.7234 66.357 66.8286 66.2072 66.8286 66.2072L 74.1543 56.7519C 74.1543 56.7519 74.3583 56.498 74.5673 56.498C 74.7877 56.498 74.9931 56.7679 74.9931 56.7679L 82.2929 66.1904C 82.2929 66.1904 82.426 66.357 82.0724 66.357Z" fill="#FF9900"/>
</svg>