<svg width="107" height="114" viewBox="0 0 107 114" version="1.1" xmlns="http://www.w3.org/2000/svg" xmlns:xlink="http://www.w3.org/1999/xlink">
<path d="M 53.5 0C 23.9527 0 0 24.2221 0 54.1017L 0 75.3559C 0 76.423 0.855522 77.2881 1.91071 77.2881L 7.7403 77.2881C 8.20891 80.6069 11.015 83.0753 14.3304 83.0847L 15.4768 83.0847C 16.5267 88.3138 21.5696 91.6917 26.7404 90.63C 31.1965 89.7149 34.3974 85.7507 34.3929 81.1525L 34.3929 54.1017C 34.3981 48.7662 30.1253 44.4363 24.8488 44.431C 20.3018 44.4264 16.3817 47.6634 15.4768 52.1695L 14.3304 52.1695C 11.015 52.1789 8.20891 54.6473 7.7403 57.9661L 3.82143 57.9661L 3.82143 54.1017C 3.81761 40.4417 9.33169 27.3728 19.0861 17.9231C 22.7246 20.6161 27.6435 20.7081 31.3778 18.1531C 37.9317 13.7665 45.6415 11.4804 53.5 11.5932C 61.3597 11.4833 69.0695 13.7727 75.6222 18.1627C 79.3646 20.7038 84.2764 20.6176 87.9292 17.9463C 97.6717 27.3933 103.18 40.4521 103.179 54.1017L 103.179 57.9661L 99.2597 57.9661C 98.7911 54.6473 95.985 52.1789 92.6696 52.1695L 91.5232 52.1695C 90.4733 46.9405 85.4304 43.5625 80.2596 44.6242C 75.8033 45.5391 72.6026 49.5035 72.6071 54.1017L 72.6071 81.1525C 72.6019 86.4881 76.8747 90.8179 82.1512 90.8232C 86.6982 90.8278 90.6185 87.5909 91.5232 83.0847L 92.6696 83.0847C 95.985 83.0753 98.7911 80.6069 99.2597 77.2881L 103.081 77.2881C 102.067 93.5624 88.7321 106.244 72.6071 106.271L 62.702 106.271C 61.8952 103.963 59.7418 102.417 57.3214 102.407L 49.6786 102.407C 46.5128 102.407 43.9464 105.002 43.9464 108.203C 43.9464 111.405 46.5128 114 49.6786 114L 57.3214 114C 59.7418 113.99 61.8952 112.443 62.702 110.136L 72.6071 110.136C 91.5927 110.113 106.978 94.555 107 75.3559L 107 54.1017C 107 24.2221 83.0473 0 53.5 0ZM 19.1071 54.1017C 19.1071 50.9003 21.6735 48.3051 24.8393 48.3051C 28.0051 48.3051 30.5714 50.9003 30.5714 54.1017L 30.5714 81.1525C 30.5714 84.354 28.0051 86.9492 24.8393 86.9492C 21.6735 86.9492 19.1071 84.354 19.1071 81.1525L 19.1071 54.1017ZM 11.4643 58.9322C 11.4643 57.3316 12.7476 56.0339 14.3304 56.0339L 15.2857 56.0339L 15.2857 79.2203L 14.3304 79.2203C 12.7476 79.2203 11.4643 77.9226 11.4643 76.322L 11.4643 58.9322ZM 7.64286 61.8305L 7.64286 73.4237L 3.82143 73.4237L 3.82143 61.8305L 7.64286 61.8305ZM 77.7623 14.9553C 70.577 10.1351 62.1219 7.61675 53.5 7.72881C 44.8774 7.61433 36.4208 10.1305 29.2339 14.9495C 27.0796 16.409 24.2993 16.5283 22.0305 15.2586C 40.3177 0.0664186 66.6746 0.0664186 84.9618 15.2586L 84.9656 15.2644C 82.6969 16.5341 79.9166 16.4148 77.7623 14.9553ZM 87.8929 81.1525C 87.8929 84.354 85.3265 86.9492 82.1607 86.9492C 78.9949 86.9492 76.4286 84.354 76.4286 81.1525L 76.4286 54.1017C 76.4286 50.9003 78.9949 48.3051 82.1607 48.3051C 85.3265 48.3051 87.8929 50.9003 87.8929 54.1017L 87.8929 81.1525ZM 95.5357 76.322C 95.5357 77.9226 94.2524 79.2203 92.6696 79.2203L 91.7143 79.2203L 91.7143 56.0339L 92.6696 56.0339C 94.2524 56.0339 95.5357 57.3316 95.5357 58.9322L 95.5357 76.322ZM 57.3214 110.136L 49.6786 110.136C 48.6234 110.136 47.7679 109.27 47.7679 108.203C 47.7679 107.136 48.6234 106.271 49.6786 106.271L 57.3214 106.271C 58.3766 106.271 59.2321 107.136 59.2321 108.203C 59.2321 109.27 58.3766 110.136 57.3214 110.136ZM 103.179 73.4237L 99.3571 73.4237L 99.3571 61.8305L 103.179 61.8305L 103.179 73.4237Z"/>
</svg>