<svg width="18" height="18" viewBox="0 0 18 18" version="1.1" xmlns="http://www.w3.org/2000/svg" xmlns:xlink="http://www.w3.org/1999/xlink">
<path fill-rule="evenodd" clip-rule="evenodd" d="M 16.875 10.1249L 10.125 10.1249L 10.125 16.875C 10.125 17.4963 9.62135 18 9.00003 18C 8.37871 18 7.87506 17.4963 7.87506 16.875L 7.87506 10.125L 1.1251 10.125C 0.50378 10.125 0 9.62132 0 9C 0 8.37867 0.50378 7.87501 1.1251 7.87501L 7.87506 7.87501L 7.87506 1.12498C 7.87506 0.503658 8.37871 0 9.00003 0C 9.62135 0 10.125 0.503658 10.125 1.12498L 10.125 7.87501L 16.875 7.87501C 17.4963 7.87501 18 8.37874 18 9C 18.0001 9.62126 17.4963 10.1249 16.875 10.1249Z"/>
</svg>