<svg width="114" height="114" viewBox="0 0 114 114" version="1.1" xmlns="http://www.w3.org/2000/svg" xmlns:xlink="http://www.w3.org/1999/xlink">
<path d="M 15.2 30.4001L 43.7 30.4001C 44.7488 30.4001 45.6 29.5508 45.6 28.5001C 45.6 27.4494 44.7488 26.6001 43.7 26.6001L 15.2 26.6001C 14.1512 26.6001 13.3 27.4494 13.3 28.5001C 13.3 29.5508 14.1512 30.4001 15.2 30.4001Z"/>
<path d="M 15.2 24.7L 32.3 24.7C 33.3488 24.7 34.2 23.8507 34.2 22.8C 34.2 21.7493 33.3488 20.9 32.3 20.9L 15.2 20.9C 14.1512 20.9 13.3 21.7493 13.3 22.8C 13.3 23.8507 14.1512 24.7 15.2 24.7Z"/>
<path d="M 45.6 34.2001C 45.6 33.1494 44.7488 32.3 43.7 32.3L 15.2 32.3C 14.1512 32.3 13.3 33.1494 13.3 34.2001C 13.3 35.2508 14.1512 36.1 15.2 36.1L 43.7 36.1C 44.7488 36.1 45.6 35.2508 45.6 34.2001Z"/>
<path d="M 114 7.6L 58.9 7.6L 58.9 1.9C 58.9 0.8493 58.0488 0 57 0C 55.9512 0 55.1 0.8493 55.1 1.9L 55.1 7.6L 0 7.6L 0 87.4L 52.4134 87.4L 29.0567 110.757C 28.3138 111.5 28.3138 112.7 29.0567 113.443C 29.4272 113.814 29.9136 114 30.4 114C 30.8864 114 31.3728 113.814 31.7433 113.443L 55.1 90.0866L 55.1 108.3C 55.1 109.351 55.9512 110.2 57 110.2C 58.0488 110.2 58.9 109.351 58.9 108.3L 58.9 90.0866L 82.2567 113.443C 82.6272 113.814 83.1136 114 83.6 114C 84.0864 114 84.5728 113.814 84.9433 113.443C 85.6862 112.7 85.6862 111.5 84.9433 110.757L 61.5866 87.4L 114 87.4L 114 7.6ZM 110.2 83.6L 3.8 83.6L 3.8 11.4L 110.2 11.4L 110.2 83.6Z"/>
<path d="M 77.9 38L 86.6134 38L 63.84 60.7734L 48.0833 45.0167C 47.3404 44.2738 46.1396 44.2738 45.3967 45.0167L 21.4567 68.9566C 20.7138 69.6996 20.7138 70.9003 21.4567 71.6432C 21.8272 72.0137 22.3136 72.2 22.8 72.2C 23.2864 72.2 23.7728 72.0137 24.1433 71.6432L 46.74 49.0466L 62.4967 64.8032C 62.8672 65.1737 63.3536 65.36 63.84 65.36C 64.3264 65.36 64.8128 65.1737 65.1833 64.8032L 89.3 40.6866L 89.3 49.4C 89.3 50.4507 90.1493 51.2999 91.2 51.2999C 92.2507 51.2999 93.1 50.4507 93.1 49.4L 93.1 36.1C 93.1 35.853 93.0506 35.606 92.9537 35.3742C 92.7618 34.9087 92.3913 34.5382 91.9258 34.3463C 91.694 34.2494 91.447 34.2 91.2 34.2L 77.9 34.2C 76.8512 34.2 76 35.0493 76 36.1C 76 37.1507 76.8512 38 77.9 38Z"/>
</svg>