<svg width="84" height="81" viewBox="0 0 84 81" version="1.1" xmlns="http://www.w3.org/2000/svg" xmlns:xlink="http://www.w3.org/1999/xlink">
<path fill-rule="evenodd" clip-rule="evenodd" d="M 68.6 0C 68.8761 0 69.1381 0.127081 69.3154 0.347068L 83.7821 18.2932C 84.0149 18.5821 84.0658 18.985 83.9124 19.3265C 83.759 19.668 83.4293 19.8862 83.0667 19.8862L 75.4153 19.8862C 70.7087 41.3168 57.3865 53.9686 42.6482 61.0485C 27.7673 68.197 11.409 69.6895 0.863875 68.8716C 0.375596 68.8337 -0.00151797 68.4101 4.59406e-06 67.9012C 0.0015271 67.3923 0.381168 66.9711 0.869664 66.9364C 42.974 63.9442 58.5575 34.9246 61.4174 19.8862L 54.1333 19.8862C 53.7707 19.8862 53.4409 19.668 53.2876 19.3265C 53.1342 18.985 53.185 18.5821 53.4179 18.2932L 67.8846 0.347068C 68.0619 0.127081 68.3239 0 68.6 0ZM 56.1329 17.9461L 62.5333 17.9461C 62.8068 17.9461 63.0666 18.0708 63.2439 18.2872C 63.4212 18.5036 63.4983 18.79 63.4548 19.0706C 61.352 32.6209 48.8128 58.4239 15.7738 66.5862C 23.9788 65.658 33.1881 63.4556 41.8651 59.2874C 56.3679 52.3206 69.3493 39.8867 73.7544 18.7112C 73.8473 18.2647 74.2272 17.9461 74.6667 17.9461L 81.0664 17.9461L 68.6 2.48054L 56.1329 17.9461ZM 68.4139 42.2425C 68.8024 42.3698 69.0667 42.7443 69.0667 43.1677L 69.0667 80.0299C 69.0667 80.5657 68.6488 81 68.1333 81L 57.8667 81C 57.3512 81 56.9333 80.5657 56.9333 80.0299L 56.9333 54.3234C 56.9333 54.0287 57.0622 53.75 57.2836 53.5659C 59.5824 51.6544 64.1735 47.3555 67.3687 42.6114C 67.6023 42.2645 68.0254 42.1152 68.4139 42.2425ZM 58.8 54.7862L 58.8 79.0599L 67.2 79.0599L 67.2 46.059C 64.2745 49.8145 60.8474 53.0452 58.8 54.7862ZM 54.5932 56.3894C 54.8858 56.5616 55.0667 56.884 55.0667 57.2335L 55.0667 80.0299C 55.0667 80.5657 54.6488 81 54.1333 81L 43.8667 81C 43.3512 81 42.9333 80.5657 42.9333 80.0299L 42.9333 63.0539C 42.9333 62.6705 43.1505 62.3231 43.4876 62.1674C 47.1335 60.4833 48.616 59.5548 52.1137 57.3643C 52.5866 57.0682 53.0963 56.749 53.6531 56.4017C 53.9415 56.2219 54.3006 56.2172 54.5932 56.3894ZM 44.8 63.6823L 44.8 79.0599L 53.2 79.0599L 53.2 58.9492C 53.1593 58.9747 53.1188 59 53.0787 59.0252C 49.7495 61.1104 48.1646 62.1031 44.8 63.6823ZM 41.1138 64.1842C 41.3757 64.3637 41.5333 64.6679 41.5333 64.994L 41.5333 80.0299C 41.5333 80.5657 41.1155 81 40.6 81L 30.3333 81C 29.8179 81 29.4 80.5657 29.4 80.0299L 29.4 68.3892C 29.4 67.9497 29.6843 67.5652 30.0928 67.4519C 32.4343 66.8029 37.6904 65.2346 40.2323 64.1024C 40.5207 63.9739 40.8519 64.0047 41.1138 64.1842ZM 31.2667 69.1317L 31.2667 79.0599L 39.6667 79.0599L 39.6667 66.4197C 37.1037 67.4051 33.4358 68.5142 31.2667 69.1317ZM 27.162 68.5848C 27.3959 68.7681 27.5333 69.0549 27.5333 69.3593L 27.5333 80.0299C 27.5333 80.5657 27.1155 81 26.6 81L 16.3333 81C 15.8179 81 15.4 80.5657 15.4 80.0299L 15.4 71.2994C 15.4 70.8102 15.7505 70.3975 16.2176 70.3368C 19.9487 69.8521 23.1524 69.3742 26.3436 68.4265C 26.6252 68.3429 26.9282 68.4015 27.162 68.5848ZM 17.2667 72.1546L 17.2667 79.0599L 25.6667 79.0599L 25.6667 70.625C 22.9644 71.3364 20.2379 71.7596 17.2667 72.1546ZM 1.4 71.2994C 1.4 70.7636 1.81787 70.3293 2.33333 70.3293L 12.6 70.3293C 13.1155 70.3293 13.5333 70.7636 13.5333 71.2994L 13.5333 80.0299C 13.5333 80.5657 13.1155 81 12.6 81L 2.33333 81C 1.81787 81 1.4 80.5657 1.4 80.0299L 1.4 71.2994ZM 3.26667 72.2695L 3.26667 79.0599L 11.6667 79.0599L 11.6667 72.2695L 3.26667 72.2695Z" />
</svg>