<svg width="18" height="24" viewBox="0 0 18 24" version="1.1" xmlns="http://www.w3.org/2000/svg" xmlns:xlink="http://www.w3.org/1999/xlink">
<path d="M 17.6938 10.8514C 17.6635 10.7892 17.6333 10.7581 17.603 10.727C 17.5425 10.6338 17.482 10.5716 17.3913 10.4784C 17.3006 10.3851 17.1796 10.2919 17.0888 10.2297L 10.1626 5.31837L 3.20605 0.375981C 2.75236 0.0340545 2.17769 -0.0591982 1.66352 0.0340545C 1.14934 0.127307 0.665406 0.43815 0.362949 0.904413C 0.241966 1.09092 0.151229 1.27742 0.0907373 1.46393C 0.0302458 1.61935 0 1.77477 0 1.96128C 0 1.99236 0 2.05453 0 2.08561L 0 12.0015L 0 21.8863C 0 22.4769 0.241966 23.0053 0.604915 23.3783C 0.937618 23.7513 1.4518 24 2.02647 24C 2.26843 24 2.5104 23.9689 2.72212 23.8757C 2.93384 23.8135 3.11531 23.6892 3.29679 23.5337L 10.1626 18.6535L 17.0586 13.7422C 17.0888 13.7111 17.1493 13.68 17.1796 13.6489C 17.603 13.307 17.8752 12.8408 17.966 12.3434C 18.0567 11.8461 17.966 11.2865 17.6938 10.8514ZM 16.1815 12.4367L 9.22495 17.3791L 2.38941 22.2282C 2.35917 22.2282 2.32892 22.2593 2.32892 22.2593C 2.29868 22.2904 2.23819 22.3215 2.17769 22.3525C 2.1172 22.3836 2.08696 22.3836 2.02647 22.3836C 1.90548 22.3836 1.7845 22.3214 1.69376 22.2593C 1.60302 22.166 1.57278 22.0417 1.57278 21.9174L 1.57278 12.0015L 1.54253 12.0015L 1.54253 2.20995C 1.54253 2.17887 1.54253 2.14778 1.54253 2.1167L 1.54253 2.08561C 1.54253 2.05453 1.54253 2.02345 1.57278 1.99236C 1.57278 1.96128 1.60302 1.93019 1.60302 1.89911C 1.63327 1.86802 1.63327 1.86802 1.63327 1.83694C 1.69376 1.74369 1.81474 1.68152 1.90548 1.68152C 2.02647 1.65043 2.1172 1.68152 2.23819 1.74369C 2.26843 1.77477 2.29868 1.77477 2.32892 1.80586L 9.22495 6.71716L 16.1512 11.6285C 16.1815 11.6596 16.2117 11.6596 16.2117 11.6906C 16.242 11.7217 16.242 11.7528 16.2722 11.7528C 16.3327 11.8771 16.3629 12.0015 16.3629 12.1258C 16.3327 12.2502 16.2722 12.3745 16.1815 12.4367Z"/>
</svg>