<svg width="189" height="57" viewBox="0 0 189 57" version="1.1" xmlns="http://www.w3.org/2000/svg" xmlns:xlink="http://www.w3.org/1999/xlink">
<path d="M 0 13.309L 43.3572 0L 43.3572 5.91509L 0 13.9811L 0 13.309Z" transform="translate(145.643 27.0212)" fill="#4E5988"/>
<path d="M 0 0L 43.3572 8.06604L 43.3572 13.9811L 0 0.67217L 0 0Z" transform="translate(145.643 43.0189)" fill="#4E5988"/>
<path d="M 43.3572 0L 43.3572 5.9151L 0 3.36085L 0 2.68868L 43.3572 0Z" transform="translate(145.643 38.9858)" fill="#4E5988"/>
<path d="M 28.4574 11.9646L 16.108 11.9646L 16.108 17.8797L 20.9403 17.8797L 20.9403 24.467C 20.2692 24.8703 18.9268 25.0047 17.853 25.0047C 12.081 25.0047 7.91974 21.5094 7.91974 15.5943C 7.91974 8.60378 13.2891 5.91509 19.7322 5.91509C 21.6115 5.91509 24.5646 6.45283 26.9808 7.79717L 27.652 1.34434C 24.6989 0.268868 20.5376 0 18.6584 0C 7.65128 0 0 4.30189 0 15.5943C 0 26.8868 8.99361 31.0542 16.9134 31.0542C 19.598 31.0542 23.3565 30.9198 28.4574 29.7099L 28.4574 11.9646Z" transform="translate(12.6179 11.9647)" fill="#6EA75E"/>
<path d="M 0 29.9788L 20.8061 29.9788L 20.8061 23.9292L 7.24858 23.9292L 7.24858 18.0142L 19.598 18.0142L 19.598 11.8302L 7.24858 11.8302L 7.24858 6.04953L 20.8061 6.04953L 20.8061 0L 0 0L 0 29.9788Z" transform="translate(47.1157 11.9647)" fill="#6EA75E"/>
<path d="M 0 4.43632C 0 2.01651 2.01349 0 4.42969 0C 6.84588 0 8.85938 2.01651 8.85938 4.43632C 8.85938 6.85613 6.84588 8.87264 4.42969 8.87264C 2.01349 8.87264 0 6.85613 0 4.43632Z" fill="#6EA75E"/>
<path d="M 7.51705 0L 0 0L 0 29.9788L 7.51705 29.9788L 7.51705 0Z" transform="translate(0.671143 11.9647)" fill="#6EA75E"/>
<path fill-rule="evenodd" clip-rule="evenodd" d="M 0 6.04953C 0 2.68868 2.68466 0 6.04048 0C 9.39631 0 12.081 2.68868 12.081 6.04953C 12.081 9.41038 9.39631 12.0991 6.04048 12.0991C 2.68466 11.9646 0 9.27594 0 6.04953ZM 1.2081 6.04953C 1.2081 3.36085 3.35582 1.20991 6.04048 1.20991C 8.72514 1.20991 10.8729 3.36085 10.8729 6.04953C 10.8729 8.73821 8.72514 10.8892 6.04048 10.8892C 3.35582 10.7547 1.2081 8.60377 1.2081 6.04953Z" transform="translate(126.179 2.95758)" fill="#6EA75E"/>
<path fill-rule="evenodd" clip-rule="evenodd" d="M 1.34233 1.07547L 2.4162 1.07547C 3.08736 1.07547 3.75853 1.20991 3.75853 2.01651C 3.75853 2.95755 3.08736 3.09198 2.4162 3.09198L 1.34233 3.09198L 1.34233 1.07547ZM 0.134241 6.85613L 1.34233 6.85613L 1.34233 3.89858L 2.14774 3.89858L 3.89276 6.85613L 5.23509 6.85613L 3.35582 3.89858C 4.42969 3.76415 5.10086 3.22641 5.10086 2.01651C 5.10086 0.537736 4.16122 0 2.55043 0L 0 0L 0 6.85613" transform="translate(129.803 5.51178)" fill="#6EA75E"/>
<path fill-rule="evenodd" clip-rule="evenodd" d="M 19.8665 17.8797L 12.3494 17.8797L 16.2422 6.18396L 19.8665 17.8797ZM 0 29.9788L 8.18821 29.9788L 10.4702 23.9292L 21.7457 23.9292L 24.1619 29.9788L 33.0213 29.9788L 21.2088 0L 11.4098 0L 0 29.9788Z" transform="translate(99.3323 11.9647)" fill="#6EA75E"/>
<path fill-rule="evenodd" clip-rule="evenodd" d="M 0 29.8443L 12.4837 29.8443C 17.7188 29.8443 24.0277 28.3656 24.0277 21.2406C 24.0277 17.6108 22.0142 15.4599 18.1214 14.6533C 21.4773 13.4434 23.3565 11.2925 23.3565 7.5283C 23.3565 2.41981 19.1953 0 13.826 0L 0 0L 0 29.8443ZM 7.38281 5.51179L 10.0675 5.51179C 12.7521 5.51179 15.1683 5.78066 15.1683 8.46934C 15.1683 11.0236 12.4837 11.6958 9.93324 11.6958L 7.38281 11.6958L 7.38281 5.51179ZM 7.38281 17.0731L 10.2017 17.0731C 12.8864 17.0731 15.9737 17.342 15.9737 20.5684C 15.9737 23.6604 13.0206 24.0637 10.0675 24.0637L 7.38281 24.0637L 7.38281 17.0731Z" transform="translate(73.9624 12.0991)" fill="#6EA75E"/>
</svg>