<svg width="141" height="43" viewBox="0 0 141 43" version="1.1" xmlns="http://www.w3.org/2000/svg" xmlns:xlink="http://www.w3.org/1999/xlink">
<path d="M 108.5 29.9996L 140.8 20.0996L 140.8 24.4996L 108.5 30.4996L 108.5 29.9996Z"/>
<path d="M 108.5 32L 140.8 38L 140.8 42.4L 108.5 32.5L 108.5 32Z"/>
<path d="M 140.8 29L 140.8 33.4L 108.5 31.5L 108.5 31L 140.8 29Z"/>
<path d="M 30.6 17.8004L 21.4 17.8004L 21.4 22.2004L 25 22.2004L 25 27.1004C 24.5 27.4004 23.5 27.5004 22.7 27.5004C 18.4 27.5004 15.3 24.9004 15.3 20.5004C 15.3 15.3004 19.3 13.3004 24.1 13.3004C 25.5 13.3004 27.7 13.7004 29.5 14.7004L 30 9.90039C 27.8 9.10039 24.7 8.90039 23.3 8.90039C 15.1 8.90039 9.39999 12.1004 9.39999 20.5004C 9.39999 28.9004 16.1 32.0004 22 32.0004C 24 32.0004 26.8 31.9004 30.6 31.0004L 30.6 17.8004Z"/>
<path d="M 35.1 31.2004L 50.6 31.2004L 50.6 26.7004L 40.5 26.7004L 40.5 22.3004L 49.7 22.3004L 49.7 17.7004L 40.5 17.7004L 40.5 13.4004L 50.6 13.4004L 50.6 8.90039L 35.1 8.90039L 35.1 31.2004Z"/>
<path d="M 0 3.3C 0 1.5 1.5 0 3.3 0C 5.1 0 6.6 1.5 6.6 3.3C 6.6 5.1 5.1 6.6 3.3 6.6C 1.5 6.6 0 5.1 0 3.3Z"/>
<path d="M 6.1 8.90039L 0.5 8.90039L 0.5 31.2004L 6.1 31.2004L 6.1 8.90039Z"/>
<path fill-rule="evenodd" clip-rule="evenodd" d="M 94 6.7002C 94 4.2002 96 2.2002 98.5 2.2002C 101 2.2002 103 4.2002 103 6.7002C 103 9.2002 101 11.2002 98.5 11.2002C 96 11.1002 94 9.10019 94 6.7002ZM 94.9 6.7002C 94.9 4.7002 96.5 3.1002 98.5 3.1002C 100.5 3.1002 102.1 4.7002 102.1 6.7002C 102.1 8.7002 100.5 10.3002 98.5 10.3002C 96.5 10.2002 94.9 8.60019 94.9 6.7002Z"/>
<path fill-rule="evenodd" clip-rule="evenodd" d="M 97.7 4.89961L 98.5 4.89961C 99 4.89961 99.5 4.99961 99.5 5.59961C 99.5 6.29961 99 6.39961 98.5 6.39961L 97.7 6.39961L 97.7 4.89961ZM 97.7 9.19961L 97.7 6.99961L 98.3 6.99961L 99.6 9.19961L 100.6 9.19961L 99.2 6.99961C 100 6.89961 100.5 6.49961 100.5 5.59961C 100.5 4.49961 99.8 4.09961 98.6 4.09961L 96.7 4.09961L 96.7 9.19961L 97.7 9.19961Z"/>
<path fill-rule="evenodd" clip-rule="evenodd" d="M 88.8 22.2004L 83.2 22.2004L 86.1 13.5004L 88.8 22.2004ZM 74 31.2004L 80.1 31.2004L 81.8 26.7004L 90.2 26.7004L 92 31.2004L 98.6 31.2004L 89.8 8.90039L 82.5 8.90039L 74 31.2004Z"/>
<path fill-rule="evenodd" clip-rule="evenodd" d="M 55.1 31.2L 64.4 31.2C 68.3 31.2 73 30.1 73 24.8C 73 22.1 71.5 20.5 68.6 19.9C 71.1 19 72.5 17.4 72.5 14.6C 72.5 10.8 69.4 9 65.4 9L 55.1 9L 55.1 31.2ZM 60.6 13.1L 62.6 13.1C 64.6 13.1 66.4 13.3 66.4 15.3C 66.4 17.2 64.4 17.7 62.5 17.7L 60.6 17.7L 60.6 13.1ZM 60.6 21.7L 62.7 21.7C 64.7 21.7 67 21.9 67 24.3C 67 26.6 64.8 26.9 62.6 26.9L 60.6 26.9L 60.6 21.7Z"/>
</svg>