<svg width="29" height="29" viewBox="0 0 29 29" version="1.1" xmlns="http://www.w3.org/2000/svg" xmlns:xlink="http://www.w3.org/1999/xlink">
<path d="M 14.4999 0C 6.49192 0 0 6.49197 0 14.4999C 0 22.5074 6.49182 29 14.4997 29C 22.5075 29 29 22.5074 29 14.4999C 29 6.49197 22.5076 0 14.4999 0ZM 19.9696 20.0263C 19.3907 20.6048 18.4528 20.6048 17.8744 20.0263L 14.575 16.7269L 11.1253 20.1765C 10.5467 20.755 9.60873 20.755 9.03038 20.1765C 8.45144 19.5974 8.45144 18.6598 9.03038 18.0808L 12.4797 14.6315L 9.26808 11.4201C 8.68963 10.841 8.68963 9.9033 9.26808 9.32457C 9.84672 8.74593 10.7849 8.74593 11.3636 9.32457L 14.5751 12.536L 17.6366 9.4743C 18.2152 8.89585 19.1537 8.89566 19.7318 9.4743C 20.3108 10.0534 20.3108 10.9917 19.7318 11.5698L 16.6706 14.6313L 19.9698 17.9307C 20.5483 18.5091 20.5486 19.4475 19.9696 20.0263Z" transform="translate(0 29) scale(1 -1)"/>
</svg>